<svg width="4" height="14" viewBox="0 0 4 14" fill="none" xmlns="http://www.w3.org/2000/svg">
<path d="M2 10.9805C2.41667 11.0013 2.77083 11.1471 3.0625 11.418C3.33333 11.7096 3.47917 12.0638 3.5 12.4805C3.47917 12.8971 3.33333 13.2513 3.0625 13.543C2.77083 13.8138 2.41667 13.9596 2 13.9805C1.58333 13.9596 1.22917 13.8138 0.9375 13.543C0.666667 13.2513 0.520833 12.8971 0.5 12.4805C0.520833 12.0638 0.666667 11.7096 0.9375 11.418C1.22917 11.1471 1.58333 11.0013 2 10.9805ZM2 5.98047C2.41667 6.0013 2.77083 6.14714 3.0625 6.41797C3.33333 6.70964 3.47917 7.0638 3.5 7.48047C3.47917 7.89714 3.33333 8.2513 3.0625 8.54297C2.77083 8.8138 2.41667 8.95964 2 8.98047C1.58333 8.95964 1.22917 8.8138 0.9375 8.54297C0.666667 8.2513 0.520833 7.89714 0.5 7.48047C0.520833 7.0638 0.666667 6.70964 0.9375 6.41797C1.22917 6.14714 1.58333 6.0013 2 5.98047ZM2 3.98047C1.58333 3.95964 1.22917 3.8138 0.9375 3.54297C0.666667 3.2513 0.520833 2.89714 0.5 2.48047C0.520833 2.0638 0.666667 1.70964 0.9375 1.41797C1.22917 1.14714 1.58333 1.0013 2 0.980469C2.41667 1.0013 2.77083 1.14714 3.0625 1.41797C3.33333 1.70964 3.47917 2.0638 3.5 2.48047C3.47917 2.89714 3.33333 3.2513 3.0625 3.54297C2.77083 3.8138 2.41667 3.95964 2 3.98047Z" fill="#1F242E"/>
</svg>
