<svg width="22" height="22" viewBox="0 0 22 22" fill="none" xmlns="http://www.w3.org/2000/svg">
<path d="M11.2298 4.84785C11.1688 4.78944 11.0875 4.75684 11.003 4.75684C10.9185 4.75684 10.8373 4.78944 10.7762 4.84785L3.22558 12.061C3.19351 12.0916 3.168 12.1285 3.15059 12.1693C3.13318 12.2101 3.12423 12.254 3.12428 12.2984L3.12305 19.0682C3.12305 19.4163 3.26132 19.7501 3.50745 19.9962C3.75358 20.2423 4.08741 20.3806 4.43549 20.3806H8.37692C8.55096 20.3806 8.71787 20.3115 8.84094 20.1884C8.964 20.0653 9.03314 19.8984 9.03314 19.7244V14.1465C9.03314 14.0595 9.06771 13.976 9.12924 13.9145C9.19078 13.853 9.27423 13.8184 9.36125 13.8184H12.6424C12.7294 13.8184 12.8128 13.853 12.8744 13.9145C12.9359 13.976 12.9705 14.0595 12.9705 14.1465V19.7244C12.9705 19.8984 13.0396 20.0653 13.1627 20.1884C13.2857 20.3115 13.4527 20.3806 13.6267 20.3806H17.5665C17.9146 20.3806 18.2484 20.2423 18.4945 19.9962C18.7407 19.7501 18.8789 19.4163 18.8789 19.0682V12.2984C18.879 12.254 18.87 12.2101 18.8526 12.1693C18.8352 12.1285 18.8097 12.0916 18.7776 12.061L11.2298 4.84785Z" fill="#87AB42"/>
<path d="M20.6361 10.7079L17.5683 7.77297V3.31928C17.5683 3.14524 17.4991 2.97833 17.3761 2.85526C17.253 2.7322 17.0861 2.66306 16.9121 2.66306H14.9434C14.7693 2.66306 14.6024 2.7322 14.4794 2.85526C14.3563 2.97833 14.2872 3.14524 14.2872 3.31928V4.63172L11.9116 2.36038C11.6893 2.13562 11.3588 2.00684 11.0015 2.00684C10.6455 2.00684 10.3158 2.13562 10.0935 2.36079L1.36985 10.7071C1.11474 10.9532 1.08275 11.358 1.31489 11.6246C1.37319 11.6919 1.44456 11.7466 1.52468 11.7854C1.60479 11.8243 1.69197 11.8464 1.78091 11.8505C1.86984 11.8545 1.95868 11.8404 2.042 11.8091C2.12533 11.7777 2.2014 11.7298 2.26559 11.6681L10.776 3.53583C10.837 3.47742 10.9183 3.44482 11.0028 3.44482C11.0873 3.44482 11.1685 3.47742 11.2296 3.53583L19.7408 11.6681C19.8662 11.7883 20.0341 11.8539 20.2078 11.8505C20.3814 11.8471 20.5467 11.775 20.6673 11.65C20.9191 11.3892 20.8982 10.9585 20.6361 10.7079Z" fill="#87AB42"/>
</svg>
