<svg width="240" height="239" viewBox="0 0 240 239" fill="none" xmlns="http://www.w3.org/2000/svg">
<g filter="url(#filter0_d_2001_3884)">
<circle cx="120" cy="119.5" r="89.5" fill="white"/>
</g>
<g filter="url(#filter1_d_2001_3884)">
<circle cx="120" cy="119.499" r="74.4439" fill="white"/>
</g>
<path d="M140.765 109.211C141.442 108.551 141.921 107.714 142.147 106.796C142.373 105.877 142.338 104.914 142.045 104.015C141.751 103.116 141.213 102.316 140.489 101.708C139.765 101.099 138.885 100.705 137.949 100.571L129.719 99.3735C129.489 99.3405 129.271 99.252 129.083 99.1155C128.895 98.9791 128.743 98.7989 128.64 98.5906L124.96 91.1332C124.541 90.2863 123.894 89.5735 123.091 89.075C122.289 88.5766 121.363 88.3125 120.418 88.3125C119.473 88.3125 118.547 88.5766 117.745 89.075C116.942 89.5735 116.295 90.2863 115.876 91.1332L112.196 98.5906C112.093 98.7989 111.941 98.9791 111.753 99.1155C111.565 99.252 111.347 99.3405 111.117 99.3735L102.889 100.571C101.953 100.706 101.074 101.1 100.351 101.709C99.6283 102.318 99.0902 103.117 98.7979 104.016C98.5056 104.915 98.4708 105.878 98.6975 106.796C98.9242 107.714 99.4032 108.549 100.08 109.209L106.035 115.022C106.202 115.185 106.327 115.386 106.398 115.607C106.47 115.829 106.486 116.065 106.446 116.294L105.04 124.489C104.881 125.421 104.985 126.378 105.342 127.254C105.698 128.129 106.292 128.887 107.057 129.443C107.822 129.998 108.727 130.329 109.669 130.397C110.612 130.466 111.555 130.269 112.392 129.83L119.751 125.96C119.957 125.852 120.186 125.795 120.418 125.795C120.65 125.795 120.879 125.852 121.085 125.96L128.444 129.83C129.281 130.269 130.224 130.466 131.167 130.397C132.109 130.329 133.014 129.998 133.779 129.443C134.544 128.887 135.138 128.129 135.494 127.254C135.851 126.378 135.955 125.421 135.796 124.489L134.388 116.285C134.348 116.055 134.365 115.82 134.437 115.598C134.509 115.377 134.634 115.176 134.8 115.013L140.765 109.211ZM132.274 112.414C131.686 112.987 131.247 113.695 130.994 114.476C130.74 115.257 130.681 116.088 130.82 116.897L132.226 125.092C132.272 125.356 132.243 125.627 132.143 125.875C132.042 126.123 131.874 126.338 131.658 126.495C131.442 126.652 131.185 126.746 130.918 126.765C130.652 126.784 130.385 126.728 130.148 126.603L122.78 122.732C122.053 122.35 121.244 122.151 120.423 122.151C119.603 122.151 118.794 122.35 118.067 122.732L110.701 126.603C110.464 126.728 110.197 126.784 109.93 126.765C109.663 126.746 109.407 126.652 109.191 126.495C108.974 126.338 108.806 126.123 108.706 125.875C108.605 125.627 108.577 125.356 108.622 125.092L110.027 116.897C110.166 116.088 110.107 115.257 109.854 114.476C109.601 113.695 109.161 112.987 108.573 112.414L102.618 106.6C102.426 106.414 102.291 106.178 102.226 105.918C102.162 105.659 102.172 105.386 102.254 105.132C102.337 104.878 102.489 104.652 102.694 104.48C102.899 104.308 103.147 104.196 103.412 104.159L111.64 102.961C112.453 102.844 113.225 102.53 113.889 102.047C114.554 101.565 115.091 100.928 115.455 100.191L119.132 92.7427C119.25 92.5029 119.433 92.301 119.66 92.1598C119.888 92.0186 120.15 91.9438 120.417 91.9438C120.685 91.9438 120.947 92.0186 121.174 92.1598C121.401 92.301 121.584 92.5029 121.702 92.7427L125.383 100.202C125.746 100.938 126.284 101.575 126.948 102.058C127.613 102.54 128.385 102.853 129.198 102.971L137.427 104.168C137.692 104.206 137.941 104.317 138.145 104.49C138.35 104.662 138.502 104.888 138.585 105.142C138.668 105.397 138.677 105.669 138.613 105.929C138.549 106.188 138.413 106.425 138.221 106.611L132.274 112.414Z" fill="#C51F22"/>
<path d="M74.0313 121.806C74.6916 121.916 75.36 121.972 76.0296 121.973C77.9383 121.993 79.8162 121.491 81.4596 120.52C82.0628 123.103 82.9145 125.621 84.0029 128.04C82.1166 127.721 80.1804 127.88 78.3713 128.502C76.6969 128.992 75.1776 129.907 73.9602 131.157C72.7429 132.406 71.8688 133.949 71.4225 135.636C71.356 135.951 71.3747 136.279 71.4765 136.585C71.5783 136.89 71.7597 137.164 72.002 137.376C73.7261 138.801 75.9064 139.556 78.1424 139.502C79.4095 139.5 80.6679 139.292 81.8683 138.886C84.2294 138.111 86.2622 136.566 87.6417 134.499C89.1633 136.688 90.8922 138.725 92.8046 140.583C91.0888 141.063 89.5071 141.934 88.1831 143.126C86.8333 144.232 85.792 145.668 85.16 147.295C84.5279 148.921 84.3265 150.684 84.5752 152.411C84.637 152.728 84.782 153.022 84.9952 153.264C85.2085 153.506 85.4824 153.687 85.7887 153.788C86.6053 154.053 87.459 154.185 88.3175 154.18C90.9646 154.12 93.5008 153.105 95.4588 151.323C97.2012 149.813 98.4325 147.799 98.9831 145.56C103.394 148.486 108.329 150.531 113.516 151.583C110.339 154.087 108.094 157.585 107.142 161.516H98.4054C97.9236 161.516 97.4615 161.708 97.1208 162.048C96.7801 162.389 96.5887 162.851 96.5887 163.333C96.5887 163.815 96.7801 164.277 97.1208 164.617C97.4615 164.958 97.9236 165.149 98.4054 165.149H142.489C142.97 165.149 143.432 164.958 143.773 164.617C144.114 164.277 144.305 163.815 144.305 163.333C144.305 162.851 144.114 162.389 143.773 162.048C143.432 161.708 142.97 161.516 142.489 161.516H133.696C132.746 157.589 130.507 154.094 127.338 151.59C132.52 150.538 137.45 148.492 141.855 145.566C142.407 147.799 143.637 149.807 145.375 151.314C147.333 153.097 149.87 154.113 152.518 154.173C153.377 154.178 154.231 154.046 155.047 153.781C155.353 153.68 155.627 153.499 155.841 153.257C156.054 153.015 156.199 152.72 156.261 152.404C156.509 150.676 156.308 148.914 155.676 147.288C155.044 145.661 154.002 144.225 152.653 143.119C151.328 141.93 149.746 141.062 148.031 140.585C149.941 138.726 151.668 136.689 153.189 134.501C154.568 136.567 156.6 138.111 158.96 138.886C160.161 139.292 161.419 139.5 162.686 139.502C164.922 139.556 167.102 138.801 168.826 137.376C169.069 137.164 169.25 136.89 169.352 136.585C169.454 136.279 169.473 135.951 169.406 135.636C168.96 133.948 168.086 132.405 166.868 131.154C165.651 129.904 164.131 128.989 162.455 128.498C160.646 127.877 158.71 127.718 156.824 128.037C157.913 125.618 158.765 123.099 159.367 120.516C161.01 121.487 162.888 121.99 164.797 121.969C165.467 121.969 166.135 121.913 166.795 121.802C168.527 121.573 170.171 120.904 171.571 119.858C172.97 118.813 174.078 117.426 174.789 115.831C174.902 115.529 174.933 115.203 174.879 114.885C174.825 114.567 174.687 114.27 174.48 114.023C173.294 112.743 171.796 111.791 170.134 111.259C168.471 110.728 166.699 110.636 164.99 110.991C163.351 111.259 161.79 111.876 160.41 112.799C160.434 112.221 160.486 111.652 160.486 111.069C160.48 108.953 160.311 106.841 159.979 104.751C160.571 104.87 161.173 104.931 161.776 104.933C163.916 104.904 166.003 104.268 167.795 103.098C169.298 102.207 170.548 100.946 171.425 99.4353C172.303 97.9243 172.778 96.2138 172.807 94.4668C172.793 94.1448 172.694 93.8323 172.52 93.5613C172.345 93.2902 172.102 93.0704 171.815 92.9244C170.221 92.2129 168.47 91.9251 166.732 92.089C164.995 92.2529 163.329 92.863 161.896 93.86C160.395 94.8067 159.132 96.0859 158.204 97.5987C157.176 94.6244 155.812 91.777 154.139 89.1113C156.708 88.8179 159.09 87.6225 160.86 85.7377C162.119 84.5251 163.045 83.0103 163.552 81.3377C164.058 79.6652 164.127 77.8908 163.753 76.1839C163.665 75.8739 163.496 75.5927 163.264 75.3692C163.032 75.1458 162.745 74.988 162.432 74.9122C160.717 74.5866 158.947 74.7095 157.293 75.2691C155.64 75.8286 154.159 76.8058 152.994 78.1059C151.503 79.6167 150.467 81.5177 150.008 83.5904C147.885 81.2024 145.492 79.0687 142.877 77.2321C142.682 77.0952 142.461 76.9981 142.229 76.9463C141.996 76.8946 141.755 76.8892 141.52 76.9305C141.285 76.9719 141.06 77.0591 140.859 77.1872C140.658 77.3153 140.484 77.4818 140.347 77.6772C140.21 77.8726 140.113 78.093 140.061 78.3259C140.009 78.5589 140.004 78.7997 140.045 79.0347C140.086 79.2697 140.174 79.4942 140.302 79.6955C140.43 79.8968 140.596 80.0709 140.792 80.2078C147.179 84.6786 152.022 91.021 154.653 98.3604C157.284 105.7 157.573 113.675 155.48 121.185C153.387 128.696 149.016 135.372 142.968 140.293C136.921 145.214 129.496 148.138 121.717 148.661C121.657 148.661 121.595 148.661 121.535 148.661L120.418 148.716L119.302 148.665C119.243 148.665 119.177 148.665 119.121 148.665C111.342 148.142 103.917 145.218 97.8694 140.297C91.8221 135.376 87.4506 128.699 85.3578 121.189C83.265 113.678 83.5538 105.703 86.1846 98.3641C88.8154 91.0247 93.6584 84.6822 100.046 80.2114C100.44 79.9349 100.709 79.5129 100.793 79.0383C100.876 78.5637 100.767 78.0754 100.491 77.6808C100.214 77.2862 99.7924 77.0176 99.3178 76.9342C98.8432 76.8507 98.3549 76.9592 97.9603 77.2357C95.3456 79.0723 92.9528 81.206 90.8299 83.5941C90.3702 81.5213 89.335 79.6203 87.8433 78.1096C86.6777 76.809 85.1959 75.8316 83.5414 75.272C81.887 74.7125 80.1161 74.5898 78.4003 74.9159C78.0872 74.9917 77.7999 75.1494 77.5678 75.3729C77.3357 75.5963 77.1672 75.8775 77.0796 76.1875C76.705 77.8944 76.7742 79.6688 77.2805 81.3414C77.7868 83.0139 78.7134 84.5288 79.9717 85.7413C81.7399 87.6242 84.1183 88.8195 86.6843 89.1149C85.0114 91.7806 83.6474 94.6281 82.6186 97.6023C81.6911 96.0895 80.4281 94.8103 78.9272 93.8636C77.4944 92.8666 75.8284 92.2566 74.0906 92.0927C72.3528 91.9287 70.6021 92.2165 69.0082 92.9281C68.7209 93.0741 68.4777 93.2939 68.3034 93.5649C68.129 93.8359 68.03 94.1485 68.0163 94.4704C68.0448 96.2174 68.5205 97.928 69.3979 99.4389C70.2753 100.95 71.5253 102.211 73.0285 103.101C74.8196 104.272 76.9073 104.909 79.0471 104.936C79.6505 104.935 80.2523 104.874 80.8437 104.755C80.5121 106.844 80.3427 108.957 80.3369 111.073C80.3369 111.656 80.3896 112.225 80.4132 112.802C79.0333 111.879 77.4716 111.263 75.8334 110.995C74.1243 110.64 72.3526 110.733 70.6899 111.264C69.0272 111.795 67.5299 112.747 66.3431 114.027C66.136 114.274 65.9982 114.571 65.9439 114.889C65.8896 115.206 65.9208 115.533 66.0343 115.834C66.7454 117.43 67.854 118.817 69.254 119.863C70.6541 120.908 72.2989 121.577 74.0313 121.806ZM80.7111 135.442C78.9737 136.071 77.0619 136.014 75.3647 135.284C76.2731 133.678 77.7618 132.482 79.5248 131.941C81.261 131.304 83.1749 131.355 84.8749 132.083C83.9692 133.695 82.4785 134.897 80.7111 135.442ZM93.0499 148.598C91.6999 149.851 89.9236 150.544 88.0813 150.536C88.3397 148.717 89.2361 147.048 90.6106 145.828C91.9852 144.607 93.7484 143.915 95.586 143.875C95.3776 145.716 94.4697 147.407 93.0499 148.598ZM152.754 150.536C150.915 150.503 149.148 149.813 147.772 148.592C146.396 147.37 145.501 145.697 145.25 143.875C147.087 143.916 148.85 144.608 150.224 145.828C151.599 147.048 152.495 148.717 152.754 150.536ZM161.293 131.941C163.056 132.482 164.545 133.678 165.453 135.284C163.749 135.969 161.856 136.023 160.115 135.438C158.373 134.853 156.898 133.665 155.954 132.09C157.652 131.358 159.567 131.305 161.304 131.941H161.293ZM165.589 114.579C167.4 114.226 169.276 114.582 170.832 115.573C169.649 116.982 168.001 117.921 166.186 118.223C164.372 118.525 162.509 118.169 160.933 117.219C162.093 115.774 163.764 114.829 165.6 114.579H165.589ZM163.854 96.9265C165.381 95.8916 167.247 95.4826 169.066 95.7839C168.569 97.5596 167.416 99.0806 165.842 100.04C164.309 101.08 162.435 101.489 160.608 101.183C161.109 99.3994 162.274 97.8759 163.865 96.9265H163.854ZM155.607 80.6383C156.855 79.2811 158.576 78.4541 160.415 78.3276C160.342 80.1734 159.571 81.9226 158.257 83.2216C157.003 84.5846 155.273 85.4138 153.425 85.5379C153.499 83.6859 154.28 81.9327 155.607 80.6383ZM119.441 152.324C119.768 152.338 120.085 152.351 120.418 152.351C120.75 152.351 121.046 152.34 121.393 152.322C123.414 153.115 125.231 154.352 126.709 155.943C128.187 157.533 129.289 159.435 129.932 161.509H110.913C111.555 159.436 112.654 157.535 114.13 155.945C115.607 154.355 117.421 153.117 119.441 152.324ZM80.4205 78.3276C82.26 78.4541 83.981 79.2811 85.2292 80.6383C86.553 81.9307 87.3329 83.6803 87.4092 85.5288C85.561 85.4047 83.8311 84.5755 82.5768 83.2126C81.2661 81.9155 80.4956 80.17 80.4205 78.3276ZM74.9832 100.04C73.4084 99.0806 72.2561 97.5596 71.7586 95.7839C73.5783 95.4801 75.445 95.8893 76.9706 96.9265C78.5572 97.878 79.719 99.4012 80.217 101.183C78.3904 101.489 76.5161 101.08 74.9832 100.04ZM75.2357 114.574C77.0681 114.826 78.7342 115.771 79.8918 117.213C78.3304 118.213 76.4432 118.573 74.6235 118.216C72.798 117.953 71.1406 117.007 69.9874 115.567C71.5453 114.577 73.4243 114.223 75.2357 114.579V114.574Z" fill="#C51F22"/>
<defs>
<filter id="filter0_d_2001_3884" x="0.5" y="0" width="239" height="239" filterUnits="userSpaceOnUse" color-interpolation-filters="sRGB">
<feFlood flood-opacity="0" result="BackgroundImageFix"/>
<feColorMatrix in="SourceAlpha" type="matrix" values="0 0 0 0 0 0 0 0 0 0 0 0 0 0 0 0 0 0 127 0" result="hardAlpha"/>
<feOffset/>
<feGaussianBlur stdDeviation="15"/>
<feComposite in2="hardAlpha" operator="out"/>
<feColorMatrix type="matrix" values="0 0 0 0 0 0 0 0 0 0 0 0 0 0 0 0 0 0 0.07 0"/>
<feBlend mode="normal" in2="BackgroundImageFix" result="effect1_dropShadow_2001_3884"/>
<feBlend mode="normal" in="SourceGraphic" in2="effect1_dropShadow_2001_3884" result="shape"/>
</filter>
<filter id="filter1_d_2001_3884" x="15.5557" y="15.0547" width="208.888" height="208.888" filterUnits="userSpaceOnUse" color-interpolation-filters="sRGB">
<feFlood flood-opacity="0" result="BackgroundImageFix"/>
<feColorMatrix in="SourceAlpha" type="matrix" values="0 0 0 0 0 0 0 0 0 0 0 0 0 0 0 0 0 0 127 0" result="hardAlpha"/>
<feOffset/>
<feGaussianBlur stdDeviation="15"/>
<feComposite in2="hardAlpha" operator="out"/>
<feColorMatrix type="matrix" values="0 0 0 0 0 0 0 0 0 0 0 0 0 0 0 0 0 0 0.07 0"/>
<feBlend mode="normal" in2="BackgroundImageFix" result="effect1_dropShadow_2001_3884"/>
<feBlend mode="normal" in="SourceGraphic" in2="effect1_dropShadow_2001_3884" result="shape"/>
</filter>
</defs>
</svg>
