<svg width="239" height="239" viewBox="0 0 239 239" fill="none" xmlns="http://www.w3.org/2000/svg">
<g filter="url(#filter0_d_2001_3904)">
<circle cx="119.5" cy="119.5" r="89.5" fill="white"/>
</g>
<g filter="url(#filter1_d_2001_3904)">
<circle cx="119.5" cy="119.499" r="74.4439" fill="white"/>
</g>
<path d="M119 139.491C136.704 139.491 151.108 125.089 151.108 107.383C151.108 89.6791 136.706 75.2743 119 75.2743C101.296 75.2743 86.8915 89.6769 86.8915 107.383C86.8915 125.086 101.296 139.491 119 139.491ZM119 77.993C135.206 77.993 148.39 91.1767 148.39 107.383C148.39 123.589 135.206 136.772 119 136.772C102.794 136.772 89.6102 123.589 89.6102 107.383C89.6102 91.1767 102.794 77.993 119 77.993ZM149.058 138.261C157.108 130.424 162.117 119.477 162.117 107.383C162.117 83.6073 142.775 64.2656 119 64.2656C95.2245 64.2656 75.8828 83.6073 75.8828 107.383C75.8828 119.479 80.8921 130.424 88.9419 138.261L79.6007 163.491C79.4444 163.915 79.5078 164.388 79.7706 164.755C80.0334 165.122 80.4639 165.331 80.9125 165.322L96.5227 164.889L108.089 175.383C108.342 175.612 108.669 175.737 109.002 175.737C109.108 175.737 109.217 175.723 109.323 175.698C109.763 175.592 110.119 175.272 110.275 174.849L119 151.288L127.723 174.846C127.879 175.27 128.237 175.587 128.674 175.696C128.781 175.723 128.889 175.734 128.996 175.734C129.329 175.734 129.657 175.612 129.909 175.381L141.475 164.887L157.085 165.319C157.536 165.326 157.964 165.12 158.227 164.753C158.49 164.386 158.553 163.912 158.397 163.489L149.058 138.261ZM78.6016 107.383C78.6016 85.1071 96.7243 66.9844 119 66.9844C141.276 66.9844 159.398 85.1071 159.398 107.383C159.398 129.658 141.276 147.781 119 147.781C96.7243 147.781 78.6016 129.658 78.6016 107.383ZM108.426 172.016L97.9455 162.508C97.6849 162.272 97.3451 162.15 96.9939 162.156L82.8473 162.548L91.1078 140.237C98.018 146.114 106.8 149.852 116.419 150.421L108.426 172.016ZM141.004 162.156C140.652 162.15 140.313 162.272 140.052 162.508L129.571 172.016L121.576 150.421C131.196 149.85 139.977 146.111 146.887 140.237L155.148 162.548L141.004 162.156ZM105.205 126.233C105.053 126.779 105.257 127.361 105.717 127.694C106.174 128.027 106.793 128.041 107.264 127.728L119 119.975L130.736 127.728C130.962 127.878 131.225 127.952 131.486 127.952C131.767 127.952 132.048 127.866 132.286 127.692C132.743 127.359 132.947 126.776 132.798 126.23L129.05 112.673L140.05 103.907C140.494 103.554 140.671 102.962 140.496 102.423C140.322 101.884 139.83 101.51 139.264 101.485L125.212 100.86L120.275 87.6899C120.076 87.1598 119.569 86.8086 119.002 86.8086C118.436 86.8086 117.928 87.1598 117.729 87.6899L112.792 100.86L98.7407 101.485C98.1743 101.51 97.6827 101.884 97.5082 102.423C97.3337 102.962 97.5105 103.554 97.9545 103.907L108.954 112.673L105.205 126.233ZM102.481 104.043L113.807 103.538C114.351 103.513 114.829 103.166 115.019 102.657L119 92.0422L122.978 102.659C123.169 103.169 123.647 103.515 124.19 103.54L135.516 104.045L126.649 111.11C126.223 111.45 126.041 112.009 126.186 112.535L129.207 123.462L119.748 117.213C119.292 116.912 118.703 116.912 118.248 117.213L108.789 123.462L111.809 112.535C111.954 112.009 111.773 111.45 111.347 111.11L102.481 104.043Z" fill="url(#paint0_linear_2001_3904)"/>
<defs>
<filter id="filter0_d_2001_3904" x="0" y="0" width="239" height="239" filterUnits="userSpaceOnUse" color-interpolation-filters="sRGB">
<feFlood flood-opacity="0" result="BackgroundImageFix"/>
<feColorMatrix in="SourceAlpha" type="matrix" values="0 0 0 0 0 0 0 0 0 0 0 0 0 0 0 0 0 0 127 0" result="hardAlpha"/>
<feOffset/>
<feGaussianBlur stdDeviation="15"/>
<feComposite in2="hardAlpha" operator="out"/>
<feColorMatrix type="matrix" values="0 0 0 0 0 0 0 0 0 0 0 0 0 0 0 0 0 0 0.07 0"/>
<feBlend mode="normal" in2="BackgroundImageFix" result="effect1_dropShadow_2001_3904"/>
<feBlend mode="normal" in="SourceGraphic" in2="effect1_dropShadow_2001_3904" result="shape"/>
</filter>
<filter id="filter1_d_2001_3904" x="15.0557" y="15.0547" width="208.888" height="208.888" filterUnits="userSpaceOnUse" color-interpolation-filters="sRGB">
<feFlood flood-opacity="0" result="BackgroundImageFix"/>
<feColorMatrix in="SourceAlpha" type="matrix" values="0 0 0 0 0 0 0 0 0 0 0 0 0 0 0 0 0 0 127 0" result="hardAlpha"/>
<feOffset/>
<feGaussianBlur stdDeviation="15"/>
<feComposite in2="hardAlpha" operator="out"/>
<feColorMatrix type="matrix" values="0 0 0 0 0 0 0 0 0 0 0 0 0 0 0 0 0 0 0.07 0"/>
<feBlend mode="normal" in2="BackgroundImageFix" result="effect1_dropShadow_2001_3904"/>
<feBlend mode="normal" in="SourceGraphic" in2="effect1_dropShadow_2001_3904" result="shape"/>
</filter>
<linearGradient id="paint0_linear_2001_3904" x1="119" y1="64.2656" x2="119" y2="175.734" gradientUnits="userSpaceOnUse">
<stop stop-color="#A03A8D"/>
<stop offset="1" stop-color="#1F3C8D"/>
</linearGradient>
</defs>
</svg>
