<svg width="239" height="239" viewBox="0 0 239 239" fill="none" xmlns="http://www.w3.org/2000/svg">
<g filter="url(#filter0_d_2001_3914)">
<circle cx="119.5" cy="119.5" r="89.5" fill="white"/>
</g>
<g filter="url(#filter1_d_2001_3914)">
<circle cx="119.5" cy="119.499" r="74.4439" fill="white"/>
</g>
<path d="M140.68 109.541L149.651 95.5868C150.04 94.9812 149.865 94.1746 149.259 93.7853C148.653 93.3961 147.847 93.5711 147.457 94.1769L138.623 107.918C136.624 106.474 134.471 105.282 132.194 104.355L148.354 79.0603C151.443 81.2974 152.63 85.5986 150.647 89.1786C150.164 90.0516 150.803 91.1142 151.787 91.1142C152.245 91.1142 152.69 90.8716 152.928 90.442C156.722 83.5904 151.799 75 143.793 75C142.056 75 101.667 75 97.2529 75C89.0637 75 84.0011 84.0844 88.485 91.0584L100.367 109.541C89.0571 119.236 86.6516 135.009 93.0304 147.291C93.3623 147.93 94.1492 148.179 94.7882 147.847C95.4272 147.515 95.6761 146.728 95.3443 146.089C93.2674 142.09 92.1695 137.577 92.1695 133.039C92.1695 116.898 105.506 104.321 121.145 104.692C124.111 104.757 127.024 105.277 129.803 106.239C140.673 110.002 148.876 120.362 148.876 133.039C148.876 148.673 136.157 161.393 120.523 161.393C111.94 161.393 103.911 157.566 98.4954 150.894C98.0417 150.335 97.2206 150.25 96.6615 150.703C96.1025 151.157 96.0171 151.978 96.4708 152.537C102.384 159.822 111.15 164 120.523 164C137.595 164 151.484 150.111 151.484 133.039C151.484 123.936 147.56 115.439 140.68 109.541ZM134.898 77.6074L127.456 89.1839H113.591L106.148 77.6074H134.898ZM102.423 107.918L90.6782 89.6485C88.478 86.2263 89.3049 81.9717 92.1463 79.4976L108.202 104.629C106.164 105.513 104.229 106.614 102.423 107.918ZM110.688 103.676L94.3757 78.144C95.2744 77.7903 96.2363 77.6074 97.2531 77.6074H103.049L118.811 102.127C116.033 102.278 113.311 102.797 110.688 103.676ZM120.524 99.9678L115.267 91.7911H125.78L120.524 99.9678ZM129.675 103.455C127.264 102.71 124.77 102.265 122.236 102.126L137.998 77.6074H143.793C144.555 77.6074 145.29 77.711 145.993 77.9125L129.675 103.455Z" fill="url(#paint0_linear_2001_3914)"/>
<path d="M120.522 153.685C131.906 153.685 141.168 144.424 141.168 133.04C141.168 121.656 131.906 112.395 120.522 112.395C109.138 112.395 99.877 121.656 99.877 133.04C99.877 144.424 109.138 153.685 120.522 153.685ZM120.522 115.002C130.468 115.002 138.56 123.094 138.56 133.04C138.56 142.986 130.468 151.078 120.522 151.078C110.576 151.078 102.484 142.986 102.484 133.04C102.484 123.094 110.576 115.002 120.522 115.002Z" fill="url(#paint1_linear_2001_3914)"/>
<path d="M112.922 134.523C113.114 134.709 113.201 134.979 113.157 135.241L112.677 138.034C112.456 139.326 112.977 140.607 114.038 141.377C115.098 142.147 116.477 142.247 117.637 141.638L120.145 140.319C120.381 140.195 120.664 140.195 120.899 140.319L123.408 141.638C124.565 142.246 125.944 142.149 127.007 141.377C128.068 140.607 128.589 139.326 128.368 138.033L127.889 135.243C127.844 134.979 127.931 134.71 128.122 134.523L130.151 132.546C131.089 131.631 131.421 130.288 131.016 129.042C130.611 127.796 129.553 126.904 128.256 126.715L125.451 126.308C125.187 126.269 124.959 126.104 124.841 125.864L123.588 123.325C123.008 122.148 121.833 121.418 120.522 121.418C119.211 121.418 118.037 122.149 117.457 123.325L116.203 125.864C116.085 126.104 115.857 126.269 115.593 126.308L112.789 126.715C111.491 126.904 110.434 127.796 110.029 129.042C109.624 130.288 109.956 131.631 110.894 132.546L112.922 134.523ZM112.509 129.848C112.556 129.704 112.714 129.361 113.164 129.296L115.968 128.888C117.082 128.726 118.044 128.027 118.542 127.018L119.795 124.478C119.997 124.07 120.371 124.025 120.522 124.025C120.674 124.025 121.048 124.07 121.25 124.478C121.261 124.502 122.49 126.991 122.503 127.017C123.001 128.027 123.963 128.726 125.077 128.888L127.88 129.296C128.331 129.361 128.489 129.704 128.536 129.848C128.583 129.992 128.656 130.361 128.331 130.679L126.302 132.656C125.497 133.442 125.129 134.572 125.319 135.683L125.798 138.474C125.875 138.922 125.598 139.179 125.475 139.268C125.352 139.357 125.024 139.541 124.621 139.33L122.112 138.011C121.117 137.488 119.929 137.488 118.933 138.011L116.424 139.33C116.022 139.541 115.693 139.357 115.57 139.268C115.447 139.178 115.17 138.922 115.247 138.474L115.727 135.681C115.916 134.572 115.548 133.442 114.743 132.656L112.715 130.679C112.389 130.361 112.462 129.992 112.509 129.848Z" fill="url(#paint2_linear_2001_3914)"/>
<path d="M160.937 108.504L160.21 108.106C159.424 107.676 158.781 107.034 158.351 106.246L157.954 105.521L157.954 105.521C157.156 104.063 155.574 104.119 155.603 104.127C154.623 104.127 153.722 104.661 153.25 105.523L152.856 106.246C152.425 107.033 151.781 107.676 150.994 108.106L150.268 108.504C148.418 109.517 148.408 112.187 150.27 113.207L150.994 113.602C151.781 114.033 152.425 114.677 152.855 115.461L153.252 116.189C154.267 118.044 156.938 118.044 157.954 116.189L158.352 115.463C158.781 114.677 159.424 114.033 160.209 113.603L160.937 113.206C161.796 112.735 162.33 111.835 162.33 110.855C162.33 109.876 161.797 108.975 160.937 108.504ZM159.687 110.918L158.959 111.315C156.616 112.599 155.914 114.584 155.667 114.937C155.657 114.955 155.646 114.975 155.603 114.975C155.559 114.975 155.548 114.955 155.54 114.939C155.3 114.597 154.595 112.601 152.244 111.314L151.521 110.919C151.503 110.909 151.483 110.898 151.483 110.855C151.483 110.812 151.503 110.8 151.52 110.791L152.245 110.394C154.592 109.112 155.299 107.114 155.538 106.773C155.548 106.755 155.559 106.735 155.603 106.735C155.646 106.735 155.657 106.755 155.667 106.773L156.063 107.497C157.342 109.839 159.334 110.545 159.685 110.791C159.703 110.801 159.723 110.812 159.723 110.855C159.723 110.898 159.703 110.909 159.687 110.918Z" fill="url(#paint3_linear_2001_3914)"/>
<path d="M91.1372 108.866C93.2186 107.727 93.2207 104.73 91.1359 103.589L90.2402 103.1C89.2138 102.538 88.3749 101.699 87.8144 100.674C87.6427 100.36 87.3008 99.7351 87.3225 99.7747C86.7946 98.8101 85.7834 98.2109 84.6838 98.2109C83.5842 98.2111 82.5732 98.8101 82.0442 99.7768L81.5559 100.673C80.9934 101.698 80.154 102.538 79.1319 103.098L78.2306 103.589C76.1487 104.729 76.148 107.726 78.2311 108.867L79.1298 109.358C80.1545 109.919 80.9934 110.758 81.5547 111.782L82.0454 112.681C82.5733 113.646 83.5843 114.245 84.6838 114.245C85.7834 114.245 86.7944 113.646 87.3222 112.682L87.8146 111.783C88.375 110.757 89.2132 109.919 90.2404 109.358L91.1372 108.866ZM89.8849 106.579L88.9888 107.07C86.1799 108.605 85.3457 110.985 85.0353 111.429C84.8826 111.708 84.4848 111.707 84.3334 111.431C84.0338 111.002 83.1918 108.608 80.381 107.07L79.4823 106.579C79.2035 106.427 79.2047 106.029 79.4802 105.878C79.9044 105.581 82.2989 104.74 83.8439 101.924L84.3328 101.026C84.4861 100.746 84.8835 100.75 85.0353 101.026L85.527 101.925C87.0621 104.731 89.4611 105.58 89.8856 105.877C90.0667 105.976 90.0937 106.139 90.0937 106.228C90.0935 106.317 90.0664 106.48 89.8849 106.579Z" fill="url(#paint4_linear_2001_3914)"/>
<defs>
<filter id="filter0_d_2001_3914" x="0" y="0" width="239" height="239" filterUnits="userSpaceOnUse" color-interpolation-filters="sRGB">
<feFlood flood-opacity="0" result="BackgroundImageFix"/>
<feColorMatrix in="SourceAlpha" type="matrix" values="0 0 0 0 0 0 0 0 0 0 0 0 0 0 0 0 0 0 127 0" result="hardAlpha"/>
<feOffset/>
<feGaussianBlur stdDeviation="15"/>
<feComposite in2="hardAlpha" operator="out"/>
<feColorMatrix type="matrix" values="0 0 0 0 0 0 0 0 0 0 0 0 0 0 0 0 0 0 0.07 0"/>
<feBlend mode="normal" in2="BackgroundImageFix" result="effect1_dropShadow_2001_3914"/>
<feBlend mode="normal" in="SourceGraphic" in2="effect1_dropShadow_2001_3914" result="shape"/>
</filter>
<filter id="filter1_d_2001_3914" x="15.0557" y="15.0547" width="208.888" height="208.888" filterUnits="userSpaceOnUse" color-interpolation-filters="sRGB">
<feFlood flood-opacity="0" result="BackgroundImageFix"/>
<feColorMatrix in="SourceAlpha" type="matrix" values="0 0 0 0 0 0 0 0 0 0 0 0 0 0 0 0 0 0 127 0" result="hardAlpha"/>
<feOffset/>
<feGaussianBlur stdDeviation="15"/>
<feComposite in2="hardAlpha" operator="out"/>
<feColorMatrix type="matrix" values="0 0 0 0 0 0 0 0 0 0 0 0 0 0 0 0 0 0 0.07 0"/>
<feBlend mode="normal" in2="BackgroundImageFix" result="effect1_dropShadow_2001_3914"/>
<feBlend mode="normal" in="SourceGraphic" in2="effect1_dropShadow_2001_3914" result="shape"/>
</filter>
<linearGradient id="paint0_linear_2001_3914" x1="120.521" y1="75" x2="120.521" y2="164" gradientUnits="userSpaceOnUse">
<stop stop-color="#EC0505"/>
<stop offset="1" stop-color="#666666"/>
</linearGradient>
<linearGradient id="paint1_linear_2001_3914" x1="120.522" y1="112.395" x2="120.522" y2="153.685" gradientUnits="userSpaceOnUse">
<stop stop-color="#EC0505"/>
<stop offset="1" stop-color="#666666"/>
</linearGradient>
<linearGradient id="paint2_linear_2001_3914" x1="120.522" y1="121.418" x2="120.522" y2="142.034" gradientUnits="userSpaceOnUse">
<stop stop-color="#EC0505"/>
<stop offset="1" stop-color="#666666"/>
</linearGradient>
<linearGradient id="paint3_linear_2001_3914" x1="155.604" y1="104.125" x2="155.604" y2="117.581" gradientUnits="userSpaceOnUse">
<stop stop-color="#EC0505"/>
<stop offset="1" stop-color="#666666"/>
</linearGradient>
<linearGradient id="paint4_linear_2001_3914" x1="84.6839" y1="98.2109" x2="84.6839" y2="114.245" gradientUnits="userSpaceOnUse">
<stop stop-color="#EC0505"/>
<stop offset="1" stop-color="#666666"/>
</linearGradient>
</defs>
</svg>
