<svg width="44" height="44" viewBox="0 0 44 44" fill="none" xmlns="http://www.w3.org/2000/svg">
<path fill-rule="evenodd" clip-rule="evenodd" d="M42.9332 19.3528C42.7868 18.0252 41.7659 17.0185 40.4503 16.9051L37.3986 16.6428C36.7832 16.5901 36.2735 16.2157 36.0363 15.6423C35.7986 15.0685 35.8921 14.439 36.2868 13.9575L38.2415 11.5751C39.0843 10.547 39.0921 9.10528 38.2609 8.06798C37.2825 6.84871 36.1715 5.73448 34.9588 4.7541C33.9275 3.92092 32.5032 3.94058 31.4942 4.80133L29.1552 6.79899C28.6823 7.2018 28.0611 7.30177 27.4924 7.06581C26.9236 6.82995 26.5504 6.31792 26.4929 5.69517L26.2093 2.61005C26.087 1.2804 25.085 0.255647 23.7723 0.116813C22.2306 -0.044612 20.667 -0.0388309 19.1244 0.134778C17.8121 0.283307 16.8172 1.31598 16.7055 2.64811L16.4468 5.73617C16.3943 6.35857 16.0247 6.87388 15.4581 7.11473C14.891 7.35478 14.2685 7.25988 13.7932 6.86125L11.4381 4.88324C10.4225 4.0296 8.99736 4.02204 7.97273 4.86359C6.76828 5.85366 5.66675 6.9775 4.69837 8.20512C3.87501 9.24829 3.89443 10.69 4.74504 11.711L6.71827 14.0775C7.11633 14.5551 7.21512 15.1842 6.98238 15.7602C6.74929 16.3357 6.24331 16.7138 5.62834 16.7715L2.57915 17.0588C1.26518 17.1826 0.252068 18.1965 0.116102 19.5245C-0.0442988 21.085 -0.0384981 22.6674 0.133504 24.2283C0.279842 25.5563 1.30078 26.5622 2.61677 26.6751L5.66842 26.9374C6.28383 26.9905 6.79306 27.3644 7.03037 27.9379C7.26802 28.5117 7.1746 29.1412 6.77988 29.6227L4.82519 32.0063C3.98241 33.0331 3.97459 34.4757 4.80665 35.513C5.78461 36.7314 6.89519 37.847 8.10791 38.8261C9.13913 39.6593 10.5639 39.6396 11.5725 38.7789L13.9119 36.7821C14.384 36.3793 15.0057 36.2798 15.5743 36.5153C16.143 36.7511 16.5167 37.2635 16.5741 37.8851L16.8572 40.9702C16.9796 42.2999 17.9819 43.3254 19.2943 43.4635C20.0378 43.5417 20.7864 43.5806 21.5353 43.5806C22.3392 43.5806 23.1436 43.5354 23.9421 43.4455C25.2544 43.2979 26.2493 42.2643 26.3609 40.9331L26.6197 37.8442C26.6722 37.2218 27.0413 36.7065 27.6084 36.4664C28.1759 36.2263 28.7983 36.3205 29.2729 36.7199L31.6284 38.6979C32.6443 39.5508 34.0691 39.5591 35.0938 38.7167C36.299 37.7267 37.4001 36.6037 38.3686 35.3761C39.1915 34.3321 39.1721 32.8903 38.3215 31.8702L36.3482 29.5028C35.9498 29.0251 35.8514 28.396 36.0845 27.8205C36.3173 27.2454 36.8236 26.8664 37.4386 26.8087L40.4869 26.5222C41.8017 26.3984 42.814 25.3844 42.9504 24.0561C43.1113 22.496 43.1052 20.9137 42.9332 19.3528ZM21.5334 33.7271C15.0288 33.7271 9.73687 28.3722 9.73687 21.7908C9.73687 15.2082 15.0288 9.85317 21.5334 9.85317C28.0384 9.85317 33.3299 15.2082 33.3299 21.7908C33.3299 28.3722 28.0384 33.7271 21.5334 33.7271ZM29.1333 24.9336C28.3835 24.1749 27.313 23.8462 26.2705 24.0532C26.182 24.0712 26.1105 24.049 26.0465 23.9837L23.5041 21.4119L26.7036 18.1737L27.7746 17.9433C27.8816 17.9199 27.9767 17.8571 28.0408 17.7664L29.6437 15.4931C29.7686 15.3162 29.7483 15.074 29.5974 14.92L28.3228 13.6305C28.1711 13.4766 27.9317 13.4569 27.7569 13.5833L25.5104 15.2057C25.4207 15.2705 25.3583 15.3668 25.3356 15.4751L25.1075 16.5584L21.9079 19.7957L19.3655 17.2229C19.3014 17.1585 19.2799 17.0866 19.2973 16.9958C19.5023 15.9418 19.1769 14.8588 18.4268 14.0993C17.4968 13.1582 16.1171 12.893 14.9114 13.4243C14.7779 13.4829 14.682 13.6045 14.6548 13.7488C14.6279 13.8935 14.6733 14.042 14.7759 14.1462L16.1845 15.5712L16.0163 16.2069L15.3876 16.3776L13.9798 14.9521C13.8769 14.848 13.7297 14.8016 13.5871 14.83C13.4441 14.8568 13.3238 14.9546 13.2659 15.0889C12.7414 16.3094 13.0031 17.7055 13.933 18.6467C14.6832 19.4062 15.7538 19.7354 16.7957 19.528C16.885 19.51 16.9557 19.5317 17.0202 19.5965L18.9939 21.5942C18.8145 21.8013 18.7215 22.0585 18.7153 22.3183C18.3131 22.5855 17.991 22.6889 17.3703 22.77C17.2739 22.7834 17.1846 22.8277 17.1161 22.8972L14.0273 26.0224C13.1109 26.9501 13.1109 28.4584 14.0273 29.3861C14.4856 29.8503 15.0875 30.0817 15.6893 30.0817C16.2911 30.0817 16.8933 29.8503 17.3513 29.3861L20.4401 26.2609C20.5087 26.1914 20.5525 26.1007 20.5653 26.0036C20.6455 25.375 20.7472 25.0487 21.0125 24.6422C21.2788 24.635 21.5288 24.5363 21.7272 24.3602L23.7013 26.3578C23.7654 26.4226 23.7868 26.4946 23.7695 26.5845C23.5644 27.6393 23.8897 28.7227 24.64 29.481C25.2517 30.1 26.0581 30.4267 26.8806 30.4267C27.3096 30.4267 27.7429 30.3384 28.155 30.156C28.2885 30.0975 28.3844 29.9766 28.4117 29.8314C28.4389 29.6867 28.3935 29.5383 28.2906 29.4341L26.8823 28.009L27.0514 27.3733L27.6797 27.2035L29.0875 28.6281C29.1904 28.7323 29.3363 28.7787 29.4797 28.7511C29.6232 28.7235 29.7434 28.6265 29.8013 28.4914C30.3249 27.2708 30.0633 25.8747 29.1333 24.9336ZM20.3802 21.3416C20.2202 21.2534 20.0399 21.2061 19.8524 21.2048L17.6415 18.9675C17.3711 18.6948 17.0012 18.5806 16.6264 18.6547C15.8716 18.8048 15.0974 18.5665 14.5548 18.0177C14.0501 17.5074 13.8174 16.811 13.8926 16.1226L14.9454 17.1879C15.0565 17.3 15.2182 17.3448 15.3699 17.3038L16.4887 16.9997C16.6404 16.9587 16.7591 16.8386 16.7995 16.6856L17.0991 15.5534C17.1396 15.3995 17.0962 15.2359 16.9855 15.1238L15.9323 14.0585C16.6126 13.9828 17.3004 14.2174 17.8055 14.7281C18.3478 15.2777 18.5834 16.0611 18.4351 16.8244C18.3611 17.2042 18.4739 17.5785 18.7443 17.8524L21.2862 20.4244L20.3802 21.3416ZM21.3884 22.2948L21.0349 21.9372L25.8209 17.0937C25.8813 17.0331 25.9226 16.9561 25.9404 16.8724L26.1599 15.8293L27.9645 14.5259L28.7122 15.283L27.4247 17.1087L26.3938 17.3313C26.3103 17.3492 26.2346 17.3907 26.1748 17.4512L21.3884 22.2948ZM29.1747 27.4587L28.1219 26.3926C28.0099 26.2805 27.8483 26.2366 27.6974 26.2776L26.5786 26.5808C26.4264 26.6218 26.3087 26.7418 26.2673 26.8957L25.9677 28.0271C25.9272 28.181 25.9702 28.3445 26.0818 28.4567L27.135 29.522C26.4546 29.5986 25.7665 29.3631 25.2618 28.8524C24.7186 28.3036 24.4835 27.5193 24.6322 26.7561C24.7058 26.3763 24.5929 26.0019 24.323 25.7288L22.1121 23.492C22.1109 23.308 22.0655 23.1239 21.9765 22.9579L22.8829 22.0407L25.4254 24.613C25.6961 24.8869 26.066 25.0007 26.4405 24.9259C27.1952 24.7757 27.9698 25.0141 28.5121 25.5629C29.0163 26.0738 29.2495 26.7694 29.1747 27.4587Z" fill="#FF7029"/>
</svg>
