<svg width="32" height="32" viewBox="0 0 32 32" fill="none" xmlns="http://www.w3.org/2000/svg">
<path d="M30.2093 9.75118L29.3333 9.06115V1.16479H25.3333V5.90771L18.876 0.821118C17.1813 -0.513289 14.816 -0.513289 13.124 0.821118L1.792 9.74984C0.653333 10.6466 0 11.9944 0 13.4497V32.0414H12V19.288C12 18.9175 12.3 18.6168 12.6667 18.6168H19.3333C19.7 18.6168 20 18.9175 20 19.288V32.0414H32V13.4497C32 11.9944 31.348 10.6479 30.2093 9.75118ZM28 28.014H24V19.288C24 16.6971 21.9067 14.5894 19.3333 14.5894H12.6667C10.0933 14.5894 8 16.6971 8 19.288V28.014H4V13.4497C4 13.2456 4.09467 13.0483 4.256 12.9207L15.5893 3.99201C15.832 3.80139 16.168 3.80139 16.4093 3.99201L27.744 12.9221C27.904 13.0483 27.9987 13.2456 27.9987 13.4497L28 28.014Z" fill="#87AB42"/>
</svg>
