<svg width="71" height="86" viewBox="0 0 71 86" fill="none" xmlns="http://www.w3.org/2000/svg">
<path d="M68.9734 14.5516L36.7604 1.17718C35.9534 0.842228 35.0464 0.842063 34.2396 1.17718L2.02662 14.5516C0.799736 15.0611 0 16.2589 0 17.5874V33.8459C0 56.2327 13.5309 76.3703 34.2578 84.8303C35.0539 85.1552 35.9459 85.1552 36.7422 84.8303C57.4688 76.3705 71 56.2329 71 33.8459V17.5874C71 16.2589 70.2004 15.0611 68.9734 14.5516ZM64.4259 33.8459C64.4259 52.877 53.25 70.3964 35.5 78.2166C18.2243 70.6053 6.57407 53.3927 6.57407 33.8459V19.7818L35.5 7.77196L64.4259 19.7818V33.8459ZM31.8668 44.9255L45.9952 30.7973C47.2788 29.5137 49.36 29.5136 50.6437 30.7973C51.9275 32.0811 51.9273 34.1623 50.6435 35.4459L34.1911 51.8983C32.9072 53.1822 30.826 53.1817 29.5426 51.8983L20.3563 42.712C19.0725 41.4283 19.0725 39.3471 20.3563 38.0635C21.64 36.7799 23.7212 36.7797 25.0048 38.0635L31.8668 44.9255Z" fill="#87AB42"/>
</svg>
