<svg width="23" height="23" viewBox="0 0 23 23" fill="none" xmlns="http://www.w3.org/2000/svg">
<path d="M20.7648 17.1135C20.4559 17.2742 20.1378 17.4145 19.8118 17.5362C18.7808 17.9199 17.6875 18.1148 16.5863 18.1117C12.3377 18.1117 8.63498 15.192 8.63498 11.4362C8.6459 10.4131 9.20895 9.47412 10.1089 8.98438C6.26424 9.14658 5.27539 13.1535 5.27539 15.4977C5.27539 22.1451 11.3925 22.8111 12.7136 22.8111C13.4233 22.8111 14.4916 22.6052 15.1389 22.3978L15.2559 22.3619C17.7311 21.5072 19.8414 19.8336 21.2389 17.6189C21.3418 17.4489 21.2873 17.2274 21.1172 17.126C21.0112 17.0589 20.8755 17.0543 20.7648 17.1135Z" fill="#FF7029"/>
<path opacity="0.35" d="M20.7648 17.1135C20.4559 17.2742 20.1378 17.4145 19.8118 17.5362C18.7808 17.9199 17.6875 18.1148 16.5863 18.1117C12.3377 18.1117 8.63498 15.192 8.63498 11.4362C8.6459 10.4131 9.20895 9.47412 10.1089 8.98438C6.26424 9.14658 5.27539 13.1535 5.27539 15.4977C5.27539 22.1451 11.3925 22.8111 12.7136 22.8111C13.4233 22.8111 14.4916 22.6052 15.1389 22.3978L15.2559 22.3619C17.7311 21.5072 19.8414 19.8336 21.2389 17.6189C21.3418 17.4489 21.2873 17.2274 21.1172 17.126C21.0112 17.0589 20.8755 17.0543 20.7648 17.1135Z" fill="url(#paint0_radial_0_2684)"/>
<path d="M9.49828 21.6774C8.69815 21.1814 8.00564 20.531 7.45975 19.7636C5.09837 16.5304 5.80335 11.9948 9.0366 9.63338C9.37506 9.38694 9.73379 9.16859 10.1097 8.98299C10.3967 8.84885 10.8739 8.6149 11.5118 8.62426C12.4212 8.63205 13.2759 9.06409 13.8202 9.79247C14.182 10.2791 14.3801 10.8671 14.3864 11.4723C14.3864 11.4536 16.5871 4.32104 7.19928 4.32104C3.2548 4.32104 0.0121907 8.05809 0.0121907 11.3459C-0.00340633 13.0834 0.367802 14.8007 1.0993 16.3775C3.57922 21.6571 9.61681 24.2446 15.1491 22.3964C13.254 22.9953 11.1921 22.7317 9.50763 21.6774H9.49828Z" fill="#FF7029"/>
<path opacity="0.41" d="M9.49828 21.6774C8.69815 21.1814 8.00564 20.531 7.45975 19.7636C5.09837 16.5304 5.80335 11.9948 9.0366 9.63338C9.37506 9.38694 9.73379 9.16859 10.1097 8.98299C10.3967 8.84885 10.8739 8.6149 11.5118 8.62426C12.4212 8.63205 13.2759 9.06409 13.8202 9.79247C14.182 10.2791 14.3801 10.8671 14.3864 11.4723C14.3864 11.4536 16.5871 4.32104 7.19928 4.32104C3.2548 4.32104 0.0121907 8.05809 0.0121907 11.3459C-0.00340633 13.0834 0.367802 14.8007 1.0993 16.3775C3.57922 21.6571 9.61681 24.2446 15.1491 22.3964C13.254 22.9953 11.1921 22.7317 9.50763 21.6774H9.49828Z" fill="url(#paint1_radial_0_2684)"/>
<path d="M13.6941 13.3682C13.613 13.4586 13.3885 13.5928 13.3885 13.8719C13.3885 14.1059 13.5413 14.3399 13.8189 14.527C15.1041 15.4254 17.5388 15.2991 17.5466 15.2991C18.5043 15.2991 19.4448 15.0402 20.2683 14.5535C21.9574 13.5663 22.9962 11.757 22.9993 9.80114C23.0258 7.78913 22.2803 6.45091 21.9839 5.85667C20.0702 2.13678 15.9651 0 11.4997 0C5.21095 0 0.0889028 5.05029 0 11.3374C0.0452312 8.05895 3.30656 5.40747 7.18709 5.40747C7.50215 5.40747 9.29892 5.43399 10.96 6.30586C12.1282 6.88607 13.0952 7.80317 13.7363 8.93863C14.2837 9.89161 14.3835 11.1035 14.3835 11.5886C14.3835 12.0736 14.1402 12.7833 13.6832 13.376L13.6941 13.3682Z" fill="url(#paint2_radial_0_2684)"/>
<path d="M13.6941 13.3682C13.613 13.4586 13.3885 13.5928 13.3885 13.8719C13.3885 14.1059 13.5413 14.3399 13.8189 14.527C15.1041 15.4254 17.5388 15.2991 17.5466 15.2991C18.5043 15.2991 19.4448 15.0402 20.2683 14.5535C21.9574 13.5663 22.9962 11.757 22.9993 9.80114C23.0258 7.78913 22.2803 6.45091 21.9839 5.85667C20.0702 2.13678 15.9651 0 11.4997 0C5.21095 0 0.0889028 5.05029 0 11.3374C0.0452312 8.05895 3.30656 5.40747 7.18709 5.40747C7.50215 5.40747 9.29892 5.43399 10.96 6.30586C12.1282 6.88607 13.0952 7.80317 13.7363 8.93863C14.2837 9.89161 14.3835 11.1035 14.3835 11.5886C14.3835 12.0736 14.1402 12.7833 13.6832 13.376L13.6941 13.3682Z" fill="#FF7029"/>
<defs>
<radialGradient id="paint0_radial_0_2684" cx="0" cy="0" r="1" gradientUnits="userSpaceOnUse" gradientTransform="translate(14.1257 16.022) scale(8.57045 8.14192)">
<stop offset="0.7" stop-opacity="0"/>
<stop offset="0.9" stop-opacity="0.5"/>
<stop offset="1"/>
</radialGradient>
<radialGradient id="paint1_radial_0_2684" cx="0" cy="0" r="1" gradientUnits="userSpaceOnUse" gradientTransform="translate(6.34096 17.8721) rotate(-81.3844) scale(12.8814 10.4068)">
<stop offset="0.8" stop-opacity="0"/>
<stop offset="0.9" stop-opacity="0.5"/>
<stop offset="1"/>
</radialGradient>
<radialGradient id="paint2_radial_0_2684" cx="0" cy="0" r="1" gradientUnits="userSpaceOnUse" gradientTransform="translate(2.32869 4.25184) rotate(92.2906) scale(18.1975 38.757)">
<stop stop-color="#FF7029"/>
<stop offset="0.1" stop-color="#FF7029"/>
<stop offset="0.2" stop-color="#FF7029"/>
<stop offset="0.3" stop-color="#FF7029"/>
<stop offset="0.7" stop-color="#87AB42"/>
</radialGradient>
</defs>
</svg>
