<svg width="107" height="107" viewBox="0 0 107 107" fill="none" xmlns="http://www.w3.org/2000/svg">
<circle cx="53.5" cy="53.5" r="53.5" fill="white"/>
<path d="M81.7631 74.5694C81.7647 74.5251 81.7655 74.4811 81.7655 74.4375C81.7642 73.3273 81.3226 72.2629 80.5376 71.4779C79.7525 70.6928 78.6882 70.2512 77.578 70.25V50.8828L81.3467 48.0562C81.4776 47.9581 81.5837 47.8306 81.6564 47.684C81.7291 47.5374 81.7664 47.3759 81.7654 47.2123C81.7644 47.0486 81.725 46.8875 81.6505 46.7419C81.576 46.5962 81.4683 46.4701 81.3362 46.3735L72.3436 39.8019V28.375C72.6212 28.375 72.8875 28.2647 73.0838 28.0684C73.2802 27.8721 73.3905 27.6058 73.3905 27.3281V23.1406C73.3905 22.863 73.2802 22.5967 73.0838 22.4004C72.8875 22.204 72.6212 22.0938 72.3436 22.0938H61.8748C61.5972 22.0938 61.3309 22.204 61.1346 22.4004C60.9383 22.5967 60.828 22.863 60.828 23.1406V27.3281C60.828 27.6058 60.9383 27.8721 61.1346 28.0684C61.3309 28.2647 61.5972 28.375 61.8748 28.375V32.1517L54.1175 26.4829C53.9382 26.3519 53.7219 26.2813 53.4998 26.2813C53.2778 26.2813 53.0615 26.3519 52.8822 26.4829L25.6634 46.3735C25.5313 46.4701 25.4237 46.5962 25.3492 46.7419C25.2746 46.8875 25.2353 47.0486 25.2342 47.2123C25.2332 47.3759 25.2706 47.5374 25.3433 47.684C25.416 47.8306 25.5221 47.9581 25.653 48.0562L29.4217 50.8828V70.25C28.3115 70.2512 27.2471 70.6928 26.4621 71.4779C25.677 72.2629 25.2355 73.3273 25.2342 74.4375C25.2342 74.4811 25.235 74.5251 25.2366 74.5694C24.249 74.8233 23.3879 75.4289 22.8151 76.2725C22.2422 77.1161 21.9968 78.1398 22.125 79.1514C22.2532 80.163 22.7461 81.0932 23.5113 81.7672C24.2765 82.4413 25.2614 82.8129 26.2811 82.8125H80.7186C81.7383 82.8129 82.7232 82.4413 83.4883 81.7672C84.2535 81.0932 84.7465 80.163 84.8746 79.1514C85.0028 78.1398 84.7575 77.1161 84.1846 76.2725C83.6117 75.4289 82.7507 74.8233 81.7631 74.5694ZM62.9217 24.1875H71.2967V26.2812H62.9217V24.1875ZM63.9686 33.6094V28.375H70.2498V38.2719L63.8695 33.6094H63.9686ZM53.4998 28.6247L78.9592 47.2297L76.5215 49.058L54.1157 32.7627C53.9367 32.6325 53.7211 32.5624 53.4998 32.5624C53.2785 32.5624 53.063 32.6325 52.884 32.7627L30.4781 49.058L28.0405 47.2297L53.4998 28.6247ZM24.1873 78.625C24.1879 78.0753 24.4044 77.5478 24.7901 77.1562C25.1759 76.7646 25.7 76.5401 26.2497 76.5312H26.2522C26.3057 76.5387 26.3592 76.5451 26.4138 76.5487C26.5873 76.5596 26.7607 76.5272 26.9186 76.4543C27.0764 76.3814 27.2136 76.2704 27.3177 76.1313C27.4219 75.9921 27.4898 75.8292 27.5153 75.6573C27.5408 75.4853 27.523 75.3097 27.4637 75.1464C27.377 74.9199 27.3311 74.6799 27.328 74.4375C27.3286 73.8824 27.5494 73.3502 27.9419 72.9577C28.3344 72.5652 28.8666 72.3444 29.4217 72.3438V80.7188H26.2811C25.726 80.7181 25.1938 80.4973 24.8013 80.1048C24.4088 79.7123 24.188 79.1801 24.1873 78.625ZM69.203 80.7188H56.6405V57.6875H69.203V80.7188ZM71.2967 80.7188V56.6406C71.2967 56.363 71.1864 56.0967 70.9901 55.9004C70.7938 55.704 70.5275 55.5938 70.2498 55.5938H55.5936C55.3159 55.5938 55.0497 55.704 54.8533 55.9004C54.657 56.0967 54.5467 56.363 54.5467 56.6406V80.7188H31.5155V50.8925L53.4998 34.9038L75.4842 50.8925V80.7188H71.2967ZM80.7186 80.7188H77.578V72.3438C78.1331 72.3444 78.6652 72.5652 79.0577 72.9577C79.4502 73.3502 79.671 73.8824 79.6717 74.4375C79.6686 74.6801 79.6227 74.9203 79.536 75.1469C79.4766 75.3103 79.4589 75.4859 79.4844 75.6578C79.5099 75.8298 79.5777 75.9927 79.6819 76.1318C79.7861 76.271 79.9233 76.382 80.0811 76.4548C80.2389 76.5277 80.4124 76.5601 80.5859 76.5492C80.6405 76.5456 80.694 76.5392 80.7475 76.5318H80.75C81.3053 76.5359 81.8362 76.7605 82.2259 77.1561C82.6156 77.5517 82.8322 78.0859 82.828 78.6412C82.8239 79.1965 82.5993 79.7274 82.2037 80.1171C81.8081 80.5068 81.2739 80.7234 80.7186 80.7193V80.7188Z" fill="#87AB42"/>
<path d="M49.3125 55.5938H36.75C36.4724 55.5938 36.2061 55.704 36.0097 55.9004C35.8134 56.0967 35.7031 56.363 35.7031 56.6406V71.2969C35.7031 71.5745 35.8134 71.8408 36.0097 72.0371C36.2061 72.2335 36.4724 72.3438 36.75 72.3438H49.3125C49.5901 72.3438 49.8564 72.2335 50.0528 72.0371C50.2491 71.8408 50.3594 71.5745 50.3594 71.2969V56.6406C50.3594 56.363 50.2491 56.0967 50.0528 55.9004C49.8564 55.704 49.5901 55.5938 49.3125 55.5938ZM48.2656 62.9219H44.0781V57.6875H48.2656V62.9219ZM41.9844 57.6875V62.9219H37.7969V57.6875H41.9844ZM37.7969 65.0156H41.9844V70.25H37.7969V65.0156ZM44.0781 70.25V65.0156H48.2656V70.25H44.0781Z" fill="#87AB42"/>
<path d="M60.7491 68.5567C60.9703 68.0226 60.7167 67.4102 60.1825 67.1889C59.6483 66.9676 59.0359 67.2213 58.8147 67.7555C58.5934 68.2896 58.8471 68.902 59.3812 69.1233C59.9154 69.3445 60.5278 69.0909 60.7491 68.5567Z" fill="#87AB42"/>
</svg>
