<svg width="354" height="383" viewBox="0 0 354 383" fill="none" xmlns="http://www.w3.org/2000/svg">
<path d="M225.323 254.32C223.134 256.509 220.819 258.53 218.42 260.592C220.819 258.614 223.134 256.509 225.323 254.32Z" fill="#EBEBEB"/>
<path d="M88.2258 185.499C88.248 167.398 95.4484 150.045 108.248 137.246C121.047 124.446 138.4 117.246 156.5 117.224V88.1797C130.69 88.1797 105.936 98.4329 87.6857 116.684C69.4348 134.935 59.1816 159.688 59.1816 185.499C59.1816 211.309 69.4348 236.063 87.6857 254.313C105.936 272.564 130.69 282.817 156.5 282.817V253.773C138.4 253.751 121.047 246.551 108.248 233.751C95.4484 220.952 88.248 203.599 88.2258 185.499Z" fill="#EBEBEB"/>
<path d="M92.3926 185.498C92.4037 202.497 99.1615 218.797 111.182 230.817C123.202 242.837 139.501 249.595 156.5 249.606V121.391C139.501 121.402 123.202 128.16 111.182 140.18C99.1615 152.2 92.4037 168.499 92.3926 185.498ZM126.362 175.101C128.418 175.101 130.428 175.711 132.138 176.853C133.848 177.996 135.18 179.62 135.967 181.519C136.754 183.419 136.96 185.51 136.559 187.526C136.158 189.543 135.167 191.396 133.713 192.85C132.259 194.304 130.407 195.294 128.39 195.695C126.373 196.096 124.283 195.891 122.383 195.104C120.483 194.317 118.859 192.984 117.717 191.274C116.574 189.565 115.965 187.554 115.965 185.498C115.965 182.741 117.06 180.096 119.01 178.146C120.96 176.197 123.604 175.101 126.362 175.101Z" fill="#E1E1E1"/>
<path d="M126.362 195.895C128.418 195.895 130.428 195.286 132.138 194.143C133.848 193.001 135.18 191.377 135.967 189.477C136.754 187.577 136.96 185.487 136.559 183.47C136.158 181.453 135.168 179.601 133.714 178.147C132.26 176.693 130.407 175.703 128.39 175.301C126.373 174.9 124.283 175.106 122.383 175.893C120.483 176.68 118.859 178.013 117.717 179.722C116.575 181.432 115.965 183.442 115.965 185.499C115.976 188.253 117.075 190.891 119.022 192.838C120.97 194.785 123.608 195.884 126.362 195.895Z" fill="#505050"/>
<path d="M88.2246 185.501C88.2469 203.602 95.4472 220.955 108.246 233.754C121.046 246.553 138.399 253.754 156.499 253.776V251.713C138.939 251.713 122.097 244.738 109.68 232.32C97.2631 219.903 90.2872 203.062 90.2872 185.501C90.2872 167.941 97.2631 151.099 109.68 138.682C122.097 126.265 138.939 119.289 156.499 119.289V117.227C138.399 117.249 121.046 124.449 108.246 137.248C95.4472 150.048 88.2469 167.401 88.2246 185.501Z" fill="white"/>
<path d="M92.3918 185.501C92.4029 168.502 99.1607 152.203 111.181 140.183C123.201 128.163 139.5 121.405 156.499 121.394V119.289C138.939 119.289 122.097 126.265 109.68 138.682C97.263 151.099 90.2871 167.941 90.2871 185.501C90.2871 203.062 97.263 219.903 109.68 232.32C122.097 244.737 138.939 251.713 156.499 251.713V249.609C139.5 249.598 123.201 242.84 111.181 230.82C99.1607 218.8 92.4029 202.5 92.3918 185.501Z" fill="white"/>
<path d="M132.928 74.7114C148.474 71.4557 164.526 71.4557 180.072 74.7114C167.444 53.665 156.5 9.50949 156.5 -12C156.5 9.50949 145.64 53.8754 132.928 74.7114Z" fill="#78B400" fill-opacity="0.1"/>
<path d="M267.289 161.93C270.601 177.47 270.601 193.534 267.289 209.074C288.336 196.446 332.491 185.502 354 185.502C332.491 185.502 288.167 174.642 267.289 161.93Z" fill="#78B400" fill-opacity="0.1"/>
<path d="M132.928 296.289C145.556 317.336 156.5 361.491 156.5 383C156.5 361.491 167.36 317.125 180.072 296.289C164.526 299.545 148.474 299.545 132.928 296.289Z" fill="#78B400" fill-opacity="0.1"/>
<path d="M45.7114 209.074C42.4557 193.528 42.4557 177.476 45.7114 161.93C24.665 174.558 -19.4905 185.502 -41 185.502C-19.4905 185.502 24.8754 196.362 45.7114 209.074Z" fill="#78B400" fill-opacity="0.1"/>
<path d="M76.4395 105.44C82.0348 99.8325 88.1997 94.8244 94.8341 90.4965C71.0937 84.7298 32.0736 61.0315 16.8359 45.8359C32.0736 61.0736 55.814 100.094 61.4965 123.834C65.8138 117.192 70.8228 111.026 76.4395 105.44Z" fill="#78B400" fill-opacity="0.1"/>
<path d="M236.813 105.44C242.405 111.038 247.399 117.202 251.714 123.834C257.481 100.094 281.179 61.0736 296.375 45.8359C280.927 61.0736 241.906 84.814 218.166 90.4965C224.887 94.8117 231.137 99.8201 236.813 105.44Z" fill="#78B400" fill-opacity="0.1"/>
<path d="M251.504 247.164C247.244 253.778 242.322 259.942 236.814 265.559C231.204 271.166 225.025 276.174 218.377 280.502C242.117 286.268 281.138 309.967 296.375 325.162C281.138 309.925 257.481 270.904 251.715 247.164H251.504Z" fill="#78B400" fill-opacity="0.1"/>
<path d="M61.4965 247.164C55.7298 270.904 32.0315 309.925 16.8359 325.162C32.0736 309.925 71.0937 286.268 94.8341 280.502C81.54 271.809 70.1893 260.458 61.4965 247.164Z" fill="#78B400" fill-opacity="0.1"/>
<path d="M225.322 254.32C227.511 252.132 229.531 249.817 231.594 247.417C235.578 242.588 239.088 237.387 242.075 231.885C244.331 227.722 246.286 223.404 247.926 218.962C249.02 215.974 249.946 212.943 250.746 209.828C251.565 206.695 252.212 203.519 252.682 200.315C253.389 195.409 253.713 190.455 253.65 185.499C253.65 183.815 253.65 182.131 253.65 180.489C253.487 177.205 253.15 173.931 252.64 170.682C252.64 169.082 252.135 167.483 251.798 165.883C247.276 143.946 235.328 124.238 217.968 110.084C200.608 95.929 178.899 88.1929 156.5 88.1797V117.224C174.608 117.224 191.974 124.417 204.778 137.221C217.582 150.025 224.775 167.391 224.775 185.499C224.775 203.606 217.582 220.972 204.778 233.776C191.974 246.58 174.608 253.773 156.5 253.773V282.649C163.089 282.656 169.661 281.993 176.115 280.671C179.268 280.095 182.387 279.35 185.46 278.44C197.501 274.687 208.696 268.625 218.419 260.592C220.818 258.614 223.133 256.509 225.322 254.32Z" fill="#EBEBEB"/>
<path opacity="0.2" d="M225.322 254.32C227.511 252.132 229.531 249.817 231.594 247.417C235.578 242.588 239.088 237.387 242.075 231.885C244.331 227.722 246.286 223.404 247.926 218.962C249.02 215.974 249.946 212.943 250.746 209.828C251.565 206.695 252.212 203.519 252.682 200.315C253.389 195.409 253.713 190.455 253.65 185.499C253.65 183.815 253.65 182.131 253.65 180.489C253.487 177.205 253.15 173.931 252.64 170.682C252.64 169.082 252.135 167.483 251.798 165.883C247.276 143.946 235.328 124.238 217.968 110.084C200.608 95.929 178.899 88.1929 156.5 88.1797V117.224C174.608 117.224 191.974 124.417 204.778 137.221C217.582 150.025 224.775 167.391 224.775 185.499C224.775 203.606 217.582 220.972 204.778 233.776C191.974 246.58 174.608 253.773 156.5 253.773V282.649C163.089 282.656 169.661 281.993 176.115 280.671C179.268 280.095 182.387 279.35 185.46 278.44C197.501 274.687 208.696 268.625 218.419 260.592C220.818 258.614 223.133 256.509 225.322 254.32Z" fill="white"/>
<path d="M156.5 249.61C173.502 249.61 189.808 242.855 201.831 230.833C213.853 218.81 220.608 202.504 220.608 185.502C220.608 168.5 213.853 152.194 201.831 140.171C189.808 128.149 173.502 121.395 156.5 121.395V249.61ZM185.67 175.105C187.727 175.105 189.737 175.715 191.447 176.857C193.156 178 194.489 179.624 195.276 181.523C196.063 183.423 196.269 185.514 195.868 187.53C195.466 189.547 194.476 191.4 193.022 192.854C191.568 194.308 189.716 195.298 187.699 195.699C185.682 196.1 183.591 195.894 181.692 195.108C179.792 194.321 178.168 192.988 177.026 191.278C175.883 189.569 175.273 187.558 175.273 185.502C175.273 182.745 176.369 180.1 178.319 178.15C180.268 176.2 182.913 175.105 185.67 175.105Z" fill="#E1E1E1"/>
<path opacity="0.2" d="M156.5 249.61C173.502 249.61 189.808 242.855 201.831 230.833C213.853 218.81 220.608 202.504 220.608 185.502C220.608 168.5 213.853 152.194 201.831 140.171C189.808 128.149 173.502 121.395 156.5 121.395V249.61ZM185.67 175.105C187.727 175.105 189.737 175.715 191.447 176.857C193.156 178 194.489 179.624 195.276 181.523C196.063 183.423 196.269 185.514 195.868 187.53C195.466 189.547 194.476 191.4 193.022 192.854C191.568 194.308 189.716 195.298 187.699 195.699C185.682 196.1 183.591 195.894 181.692 195.108C179.792 194.321 178.168 192.988 177.026 191.278C175.883 189.569 175.273 187.558 175.273 185.502C175.273 182.745 176.369 180.1 178.319 178.15C180.268 176.2 182.913 175.105 185.67 175.105Z" fill="white"/>
<path d="M185.67 195.895C187.727 195.895 189.737 195.286 191.447 194.143C193.156 193.001 194.489 191.377 195.276 189.477C196.063 187.577 196.269 185.487 195.868 183.47C195.466 181.453 194.476 179.601 193.022 178.147C191.568 176.693 189.716 175.703 187.699 175.301C185.682 174.9 183.591 175.106 181.692 175.893C179.792 176.68 178.168 178.013 177.026 179.722C175.883 181.432 175.273 183.442 175.273 185.499C175.285 188.253 176.383 190.891 178.331 192.838C180.278 194.785 182.916 195.884 185.67 195.895Z" fill="#505050"/>
<path opacity="0.2" d="M185.67 195.895C187.727 195.895 189.737 195.286 191.447 194.143C193.156 193.001 194.489 191.377 195.276 189.477C196.063 187.577 196.269 185.487 195.868 183.47C195.466 181.453 194.476 179.601 193.022 178.147C191.568 176.693 189.716 175.703 187.699 175.301C185.682 174.9 183.591 175.106 181.692 175.893C179.792 176.68 178.168 178.013 177.026 179.722C175.883 181.432 175.273 183.442 175.273 185.499C175.285 188.253 176.383 190.891 178.331 192.838C180.278 194.785 182.916 195.884 185.67 195.895Z" fill="white"/>
<path d="M156.5 119.289C174.061 119.289 190.902 126.265 203.319 138.682C215.736 151.099 222.712 167.941 222.712 185.501C222.712 203.062 215.736 219.903 203.319 232.32C190.902 244.738 174.061 251.713 156.5 251.713V253.776C174.608 253.776 191.974 246.583 204.778 233.779C217.582 220.975 224.775 203.609 224.775 185.501C224.775 167.394 217.582 150.028 204.778 137.224C191.974 124.42 174.608 117.227 156.5 117.227V119.289Z" fill="white"/>
<path opacity="0.2" d="M156.5 119.289C174.061 119.289 190.902 126.265 203.319 138.682C215.736 151.099 222.712 167.941 222.712 185.501C222.712 203.062 215.736 219.903 203.319 232.32C190.902 244.738 174.061 251.713 156.5 251.713V253.776C174.608 253.776 191.974 246.583 204.778 233.779C217.582 220.975 224.775 203.609 224.775 185.501C224.775 167.394 217.582 150.028 204.778 137.224C191.974 124.42 174.608 117.227 156.5 117.227V119.289Z" fill="white"/>
<path d="M222.712 185.501C222.712 167.941 215.736 151.099 203.319 138.682C190.902 126.265 174.061 119.289 156.5 119.289V121.394C173.502 121.394 189.808 128.148 201.831 140.17C213.853 152.193 220.608 168.499 220.608 185.501C220.608 202.504 213.853 218.81 201.831 230.832C189.808 242.855 173.502 249.609 156.5 249.609V251.713C165.195 251.713 173.805 250.001 181.838 246.673C189.872 243.346 197.171 238.469 203.319 232.32C209.467 226.172 214.345 218.873 217.672 210.84C221 202.806 222.712 194.196 222.712 185.501Z" fill="white"/>
<path opacity="0.2" d="M222.712 185.501C222.712 167.941 215.736 151.099 203.319 138.682C190.902 126.265 174.061 119.289 156.5 119.289V121.394C173.502 121.394 189.808 128.148 201.831 140.17C213.853 152.193 220.608 168.499 220.608 185.501C220.608 202.504 213.853 218.81 201.831 230.832C189.808 242.855 173.502 249.609 156.5 249.609V251.713C165.195 251.713 173.805 250.001 181.838 246.673C189.872 243.346 197.171 238.469 203.319 232.32C209.467 226.172 214.345 218.873 217.672 210.84C221 202.806 222.712 194.196 222.712 185.501Z" fill="white"/>
</svg>
