<svg width="220" height="68" viewBox="0 0 220 68" fill="none" xmlns="http://www.w3.org/2000/svg">
<path d="M0.355001 37.0812L23.4319 59.0916C11.6473 57.1916 2.347 48.3212 0.355001 37.0812Z" fill="#FF7029"/>
<path d="M0 31.1058L29.6968 59.4302C31.463 59.3402 33.186 59.0952 34.8511 58.7093L0.755775 26.1898C0.351183 27.778 0.0943673 29.4213 0 31.1058Z" fill="#FF7029"/>
<path d="M2.23404 21.9626L39.2832 57.2995C40.6326 56.7471 41.9277 56.0973 43.1588 55.3592L4.2684 18.2661C3.49454 19.4403 2.81318 20.6756 2.23404 21.9626Z" fill="#FF7029"/>
<path d="M6.77828 15.0234C11.9513 9.29041 19.6149 5.66016 28.1674 5.66016C43.7463 5.66016 56.3755 17.7056 56.3755 32.5646C56.3755 40.7218 52.5693 48.0312 46.5585 52.9651L6.77828 15.0234Z" fill="#FF7029"/>
<path d="M85.7637 48.6737H106.432V43.3054H92.5901V17.8781H85.7637V48.6737ZM110.827 48.6737H117.543V25.577H110.827V48.6737ZM114.201 22.8403C116.156 22.8403 117.843 21.4268 117.843 19.5923C117.843 17.7728 116.156 16.3594 114.201 16.3594C112.262 16.3594 110.575 17.7728 110.575 19.5923C110.575 21.4268 112.262 22.8403 114.201 22.8403ZM129.639 35.3209C129.655 32.3436 131.515 30.5993 134.227 30.5993C136.923 30.5993 138.547 32.2834 138.531 35.1104V48.6737H145.247V33.9676C145.247 28.5844 141.936 25.2763 136.891 25.2763C133.297 25.2763 130.695 26.9604 129.608 29.652H129.324V25.577H122.923V48.6737H129.639V35.3209ZM161.639 49.1249C167.646 49.1249 171.666 46.3429 172.612 42.0574L166.416 41.6664C165.738 43.4258 163.988 44.343 161.765 44.343C158.407 44.343 156.279 42.2228 156.279 38.7794V38.7643H172.77V37.005C172.77 29.1558 167.788 25.2763 161.387 25.2763C154.261 25.2763 149.642 30.1031 149.642 37.2306C149.642 44.5536 154.198 49.1249 161.639 49.1249ZM156.279 34.7946C156.405 32.1631 158.518 30.058 161.497 30.058C164.398 30.058 166.416 32.0429 166.448 34.7946H156.279ZM184.152 49.1098C187.731 49.1098 190.049 47.6212 191.231 45.4708H191.42V48.6737H197.79V33.0954C197.79 27.5919 192.855 25.2763 187.621 25.2763C181.661 25.2763 177.893 27.9228 176.963 32.1331L183.175 32.6143C183.632 31.0805 185.067 29.9527 187.479 29.9527C189.796 29.9527 191.058 31.0354 191.073 32.9751C191.089 34.4939 189.418 34.7194 185.209 35.1104C180.416 35.5314 176.112 37.0652 176.112 42.2228C176.112 46.7941 179.533 49.1098 184.152 49.1098ZM186.076 44.6889C184.01 44.6889 182.529 43.7716 182.529 42.0123C182.529 40.2079 184.089 39.3206 186.454 39.0049C187.92 38.8095 190.317 38.4786 191.121 37.9674V40.4185C191.121 42.8394 189.024 44.6889 186.076 44.6889ZM203 48.6737H209.716V35.6066C209.732 32.7797 211.876 30.8399 214.588 30.8399C215.502 30.8399 216.243 31.0805 216.874 31.3812L218.892 26.0882C218.009 25.577 216.874 25.2462 215.581 25.2462C212.854 25.2462 210.646 26.7499 209.763 29.6069H209.511V25.577H203V48.6737Z" fill="#FF7029"/>
</svg>
