<svg width="220" height="71" viewBox="0 0 220 71" fill="none" xmlns="http://www.w3.org/2000/svg">
<g clip-path="url(#clip0_0_5154)">
<path fill-rule="evenodd" clip-rule="evenodd" d="M209.84 47.0596C209.956 48.3194 211.013 49.923 212.844 49.923H213.914C214.33 49.923 214.67 49.5985 214.67 49.2022V26.7372H214.665C214.644 26.3588 214.316 26.0556 213.914 26.0556H210.597C210.194 26.0556 209.866 26.3588 209.846 26.7372H209.84V28.5626C207.807 26.1722 204.602 25.18 201.387 25.18C194.08 25.18 188.157 30.834 188.157 37.8089C188.157 44.7843 194.08 50.4383 201.387 50.4383C204.602 50.4383 208.106 49.2485 209.84 47.0568V47.0596ZM201.4 46.0184C196.753 46.0184 192.986 42.3432 192.986 37.8089C192.986 33.2754 196.753 29.6001 201.4 29.6001C206.048 29.6001 209.815 33.2754 209.815 37.8089C209.815 42.3432 206.048 46.0184 201.4 46.0184Z" fill="#FF7029"/>
<path fill-rule="evenodd" clip-rule="evenodd" d="M183.96 36.2075C183.96 29.6548 179.63 25.2342 172.724 25.2342C169.427 25.2342 166.724 27.0538 165.77 28.617C165.563 27.3947 164.884 26.11 162.776 26.11H161.701C161.285 26.11 160.946 26.4347 160.946 26.831V47.1158C160.946 47.1165 160.946 47.1179 160.946 47.1189V49.2979H160.95C160.972 49.6758 161.3 49.9792 161.701 49.9792H165.02C165.071 49.9792 165.121 49.9734 165.169 49.9645C165.191 49.9604 165.211 49.9522 165.232 49.9464C165.257 49.9392 165.283 49.9336 165.306 49.9244C165.336 49.9127 165.363 49.897 165.39 49.8824C165.403 49.8745 165.418 49.8691 165.431 49.8608C165.464 49.8404 165.494 49.8159 165.523 49.7908C165.528 49.7862 165.534 49.7831 165.539 49.7788C165.572 49.7484 165.602 49.7148 165.629 49.6799C165.712 49.5711 165.762 49.4393 165.771 49.2979H165.775V36.0272C165.775 32.508 168.764 29.6548 172.451 29.6548C176.138 29.6548 179.128 32.508 179.128 36.0272L179.131 47.1198L179.132 47.1158C179.132 47.1257 179.133 47.1357 179.133 47.1463V49.2979H179.138C179.16 49.6758 179.487 49.9792 179.889 49.9792H183.207C183.258 49.9792 183.308 49.9734 183.356 49.9645C183.376 49.9611 183.394 49.9535 183.413 49.9484C183.44 49.9408 183.468 49.9344 183.494 49.9244C183.521 49.9137 183.546 49.8987 183.572 49.8849C183.587 49.8765 183.604 49.8704 183.619 49.8608C183.649 49.8416 183.678 49.8183 183.705 49.7955C183.712 49.7892 183.72 49.7846 183.727 49.7783C183.758 49.7494 183.786 49.7181 183.812 49.6853C183.814 49.6828 183.816 49.6809 183.817 49.6784C183.899 49.5706 183.949 49.4403 183.958 49.2997C183.958 49.2987 183.958 49.2979 183.958 49.2979H183.963L183.96 36.2075Z" fill="#FF7029"/>
<path fill-rule="evenodd" clip-rule="evenodd" d="M149.4 47.0595C149.516 48.3193 150.573 49.9229 152.403 49.9229H153.474C153.889 49.9229 154.229 49.5984 154.229 49.2021V26.7372H154.225C154.203 26.3588 153.875 26.0556 153.474 26.0556H150.156C149.754 26.0556 149.427 26.3588 149.404 26.7372H149.4V28.5626C147.367 26.1722 144.161 25.18 140.947 25.18C133.64 25.18 127.717 30.834 127.717 37.809C127.717 44.7842 133.64 50.4384 140.947 50.4384C144.161 50.4384 147.665 49.2486 149.4 47.0567L149.4 47.0595ZM140.96 46.0184C136.313 46.0184 132.545 42.3433 132.545 37.809C132.545 33.2754 136.313 29.6001 140.96 29.6001C145.607 29.6001 149.374 33.2754 149.374 37.809C149.374 42.3433 145.607 46.0184 140.96 46.0184Z" fill="#FF7029"/>
<path fill-rule="evenodd" clip-rule="evenodd" d="M108.092 43.8421C110.307 45.3071 112.726 46.0186 115.049 46.0186C117.263 46.0186 119.552 44.9231 119.552 43.0163C119.552 40.4707 114.565 40.0745 111.432 39.0581C108.298 38.0416 105.598 35.9402 105.598 32.5373C105.598 27.3303 110.459 25.1797 114.996 25.1797C117.87 25.1797 120.836 26.0844 122.759 27.3805C123.421 27.8594 123.018 28.4093 123.018 28.4093L121.182 30.9115C120.976 31.1933 120.615 31.4368 120.097 31.1318C119.58 30.8269 117.763 29.5999 114.996 29.5999C112.228 29.5999 110.56 30.82 110.56 32.3323C110.56 34.1459 112.727 34.7162 115.265 35.3344C119.689 36.4724 124.514 37.8404 124.514 43.0163C124.514 47.6041 120.018 50.4394 115.049 50.4394C111.284 50.4394 108.078 49.4148 105.39 47.5315C104.829 46.9964 105.221 46.4996 105.221 46.4996L107.047 44.0101C107.419 43.5446 107.887 43.707 108.092 43.8421Z" fill="#FF7029"/>
<path fill-rule="evenodd" clip-rule="evenodd" d="M95.3343 47.0595C95.4503 48.3193 96.5069 49.9229 98.3371 49.9229H99.4082C99.8233 49.9229 100.164 49.5984 100.164 49.2021V26.7372H100.159C100.137 26.3588 99.8093 26.0556 99.4082 26.0556H96.0896C95.6883 26.0556 95.3605 26.3588 95.3382 26.7372H95.3343V28.5626C93.301 26.1722 90.0954 25.18 86.8807 25.18C79.5739 25.18 73.6504 30.834 73.6504 37.809C73.6504 44.7842 79.5739 50.4384 86.8807 50.4384C90.0954 50.4384 93.5986 49.2486 95.3338 47.0567L95.3343 47.0595ZM86.8937 46.0184C82.2465 46.0184 78.4792 42.3433 78.4792 37.809C78.4792 33.2754 82.2465 29.6001 86.8937 29.6001C91.5407 29.6001 95.3077 33.2754 95.3077 37.809C95.3077 42.3433 91.5407 46.0184 86.8937 46.0184Z" fill="#FF7029"/>
<path fill-rule="evenodd" clip-rule="evenodd" d="M55.1019 38.6696C50.1848 38.6696 46.1984 42.4716 46.1984 47.162C46.1984 51.8521 50.1848 55.6541 55.1019 55.6541C60.0192 55.6541 64.0055 51.8521 64.0055 47.162C64.0055 42.4716 60.0192 38.6696 55.1019 38.6696ZM31.9699 38.6704C27.0527 38.6704 23.0664 42.4716 23.0664 47.162C23.0664 51.8521 27.0527 55.6541 31.9699 55.6541C36.8874 55.6541 40.8738 51.8521 40.8738 47.162C40.8738 42.4716 36.8874 38.6704 31.9699 38.6704ZM52.4393 28.0543C52.4393 32.7447 48.4533 36.5471 43.5359 36.5471C38.6185 36.5471 34.6325 32.7447 34.6325 28.0543C34.6325 23.3649 38.6185 19.5625 43.5359 19.5625C48.4533 19.5625 52.4393 23.3649 52.4393 28.0543Z" fill="#FF7029"/>
</g>
<defs>
<clipPath id="clip0_0_5154">
<rect width="192.916" height="69.5433" fill="white" transform="translate(23.0664 0.726562)"/>
</clipPath>
</defs>
</svg>
