<svg width="220" height="69" viewBox="0 0 220 69" fill="none" xmlns="http://www.w3.org/2000/svg">
<g clip-path="url(#clip0_0_5164)">
<path d="M13.6309 5.51562H55.2759V25.3758H34.4534L13.6309 5.51562ZM13.6309 25.3758H34.4534L55.2759 45.236H13.6309V25.3758ZM13.6309 45.236H34.4534V65.0962L13.6309 45.236Z" fill="#FF7029"/>
<path d="M78.7735 21.1834H95.6072V26.2854H85.1449V33.3755H95.6072V38.3649H85.1449V47.4431H78.7735V21.1834ZM99.0682 29.3612H105.086V33.1502C105.401 31.8481 106.044 30.8486 107.014 30.1489C108.008 29.4229 109.112 29.0613 110.317 29.0613C110.947 29.0613 111.472 29.1122 111.89 29.2112V34.5386C111.29 34.4695 110.686 34.4323 110.081 34.4259C108.429 34.4259 107.185 34.9375 106.345 35.9633C105.507 36.9638 105.086 38.4639 105.086 40.4657V47.4431H99.0711V29.3612H99.0682ZM121.39 47.9311C119.555 47.9311 117.955 47.5176 116.592 46.6926C115.254 45.8675 114.191 44.6963 113.524 43.3161C112.816 41.8668 112.46 40.2267 112.46 38.4021C112.46 36.6012 112.83 34.9747 113.563 33.5255C114.251 32.1252 115.343 30.9413 116.71 30.1117C118.098 29.2866 119.685 28.8732 121.469 28.8732C122.806 28.8732 124.001 29.1494 125.049 29.6992C126.096 30.2507 126.883 31.0013 127.408 31.9499V29.3612H133.386V47.4431H127.408V44.8917C126.883 45.7921 126.071 46.529 124.969 47.1051C123.868 47.6621 122.637 47.9456 121.39 47.9311ZM123.121 43.1662C124.563 43.1662 125.677 42.7164 126.464 41.8159C127.251 40.9154 127.645 39.7769 127.645 38.4021C127.645 37.0519 127.251 35.9261 126.464 35.0256C125.677 34.1252 124.563 33.6754 123.121 33.6754C121.756 33.6754 120.657 34.1124 119.817 34.9884C119.005 35.8643 118.598 37.001 118.598 38.4021C118.598 39.8033 119.005 40.9527 119.817 41.8532C120.657 42.7291 121.758 43.1662 123.121 43.1662ZM137.595 29.3612H143.613V31.9871C144.034 31.0603 144.714 30.3098 145.658 29.7364C146.629 29.1631 147.756 28.8732 149.041 28.8732C152.03 28.8732 154.011 29.9854 154.98 32.2125C155.513 31.203 156.348 30.3679 157.379 29.8118C158.482 29.1785 159.75 28.8541 161.037 28.8732C165.521 28.8732 167.762 31.3229 167.762 36.2259V47.4431H161.705V37.2763C161.705 36.0524 161.469 35.1519 160.998 34.5759C160.525 34.0016 159.817 33.7126 158.873 33.7126C157.851 33.7126 157.064 34.0507 156.513 34.7258C155.963 35.3764 155.687 36.5131 155.687 38.1395V47.4431H149.63V37.2391C149.63 36.0142 149.395 35.1256 148.922 34.5759C148.479 34.0016 147.782 33.7126 146.84 33.7126C145.79 33.7126 144.99 34.0507 144.439 34.7258C143.889 35.3764 143.613 36.5131 143.613 38.1395V47.4431H137.597V29.3612H137.595ZM190.369 37.4644C190.369 38.2386 190.316 39.0773 190.209 39.9777H176.21C176.263 41.1535 176.681 42.0522 177.468 42.6791C178.255 43.3034 179.319 43.6168 180.654 43.6168C182.516 43.6168 183.697 43.078 184.194 42.0031H190.094C189.804 43.7795 188.782 45.216 187.025 46.3173C185.295 47.3922 183.171 47.9311 180.654 47.9311C177.403 47.9311 174.847 47.0924 172.984 45.4169C171.149 43.7404 170.231 41.4034 170.231 38.4021C170.231 36.4513 170.65 34.763 171.489 33.3374C172.3 31.9135 173.55 30.7614 175.068 30.0363C176.617 29.2621 178.412 28.8732 180.46 28.8732C182.398 28.8732 184.115 29.2358 185.61 29.9618C187.13 30.6878 188.298 31.7 189.11 33.0003C189.95 34.3023 190.369 35.7898 190.369 37.4644ZM184.428 36.414C184.402 35.2137 184.048 34.2996 183.365 33.6754C182.685 33.0511 181.7 32.7377 180.416 32.7377C179.132 32.7377 178.109 33.0748 177.348 33.7508C176.615 34.4014 176.235 35.2882 176.207 36.414H184.428ZM193.023 29.3612H199.041V33.1502C199.355 31.8481 199.998 30.8486 200.968 30.1489C201.909 29.442 203.073 29.0586 204.272 29.0613C204.9 29.0613 205.426 29.1122 205.845 29.2112V34.5386C205.244 34.4695 204.64 34.4323 204.035 34.4259C202.383 34.4259 201.139 34.9375 200.299 35.9633C199.459 36.9638 199.041 38.4639 199.041 40.4657V47.4431H193.023V29.3612Z" fill="#FF7029"/>
</g>
<defs>
<clipPath id="clip0_0_5164">
<rect width="192.916" height="65.4222" fill="white" transform="translate(13.6309 2.78906)"/>
</clipPath>
</defs>
</svg>
