<svg width="193" height="73" viewBox="0 0 193 73" fill="none" xmlns="http://www.w3.org/2000/svg">
<g clip-path="url(#clip0_0_5167)">
<path d="M60.4676 49.3167L62.8083 44.0981C65.3711 45.9085 68.7139 46.8667 72.0576 46.8667C74.5093 46.8667 76.0692 45.9619 76.0692 44.5775C76.0133 40.7432 61.3035 43.7253 61.1916 34.0853C61.1357 29.186 65.7052 25.4051 72.1694 25.4051C76.0133 25.4051 79.8588 26.3107 82.5887 28.3879L80.4014 33.7179C77.8897 32.1773 74.7874 31.1032 71.8346 31.1032C69.8287 31.1032 68.491 32.0081 68.491 33.1805C68.5469 36.9615 83.3694 34.8842 83.5364 44.0981C83.5364 49.1041 79.078 52.619 72.7256 52.619C68.0459 52.619 63.7553 51.5541 60.4668 49.3167H60.4676ZM153.67 42.2083C153.079 43.2097 152.22 44.0432 151.18 44.6232C150.14 45.2032 148.957 45.509 147.752 45.5091C143.998 45.5091 140.955 42.6002 140.955 39.012C140.955 35.4239 143.998 32.515 147.752 32.515C148.957 32.5151 150.14 32.8208 151.18 33.4009C152.22 33.9809 153.079 34.8143 153.67 35.8157L160.177 32.3702C157.74 28.2149 153.091 25.4051 147.752 25.4051C139.89 25.4051 133.516 31.4966 133.516 39.012C133.516 46.5267 139.89 52.619 147.752 52.619C153.091 52.619 157.74 49.8092 160.177 45.6539L153.67 42.2083ZM87.7591 52.0862H95.8944V14.0781H87.7599L87.7591 52.0862ZM164.286 14.0781V52.0862H172.421V40.699L182.061 52.0862H192.46L180.201 38.5585L191.568 25.9356H181.615L172.421 36.4301V14.0781H164.286ZM120.958 25.9371V29.0267C119.621 26.8961 116.333 25.4051 112.879 25.4051C105.746 25.4051 100.119 31.4234 100.119 38.9853C100.119 46.5473 105.746 52.619 112.879 52.619C116.333 52.619 119.621 51.1279 120.958 48.9973V52.0862H129.093V25.9371H120.958ZM120.958 42.2609C119.788 44.1247 117.336 45.5083 114.606 45.5083C110.851 45.5083 107.808 42.6002 107.808 39.012C107.808 35.4239 110.851 32.515 114.606 32.515C117.336 32.515 119.788 33.9527 120.958 35.8691V42.2609Z" fill="#FF7029"/>
<path d="M17.5028 13.2383C14.8664 13.2383 12.7295 15.2812 12.7295 17.8006C12.7289 18.3991 12.8519 18.9919 13.0914 19.5451C13.331 20.0983 13.6824 20.6011 14.1256 21.0248C14.5689 21.4484 15.0952 21.7847 15.6747 22.0143C16.2542 22.2439 16.8753 22.3624 17.5028 22.363H22.2769V17.8006C22.278 16.5918 21.7756 15.432 20.8803 14.5764C19.985 13.7208 18.7701 13.2395 17.5028 13.2383ZM17.5028 25.4045H4.77328C2.13691 25.4045 0 27.4475 0 29.9676C0 32.487 2.13691 34.5299 4.77328 34.5299H17.5036C20.1392 34.5299 22.2769 32.487 22.2769 29.9676C22.2769 27.4475 20.1392 25.4045 17.5028 25.4045Z" fill="#FF7029"/>
<path d="M47.7398 29.9676C47.7398 27.4475 45.6021 25.4045 42.9657 25.4045C40.3293 25.4045 38.1924 27.4475 38.1924 29.9676V34.5299H42.9657C44.233 34.5287 45.4479 34.0474 46.3432 33.1918C47.2385 32.3362 47.7408 31.1765 47.7398 29.9676ZM35.0102 29.9676V17.8006C35.0113 16.5918 34.5089 15.432 33.6137 14.5764C32.7184 13.7208 31.5035 13.2395 30.2362 13.2383C27.5998 13.2383 25.4629 15.2812 25.4629 17.8006V29.9668C25.4629 32.4878 27.5998 34.5307 30.2362 34.5307C31.5035 34.5295 32.7184 34.0482 33.6137 33.1926C34.5089 32.337 35.0113 31.1772 35.0102 29.9684" fill="#FF7029"/>
<path d="M30.2362 58.862C31.5035 58.8608 32.7184 58.3794 33.6137 57.5238C34.5089 56.6683 35.0113 55.5085 35.0102 54.2996C35.0113 53.0908 34.5089 51.931 33.6137 51.0754C32.7184 50.2198 31.5035 49.7385 30.2362 49.7373H25.4629V54.2996C25.4629 56.819 27.5998 58.862 30.2362 58.862ZM30.2362 46.6957H42.9665C45.6021 46.6957 47.7398 44.6528 47.7398 42.1326C47.7408 40.9238 47.2385 39.764 46.3432 38.9084C45.4479 38.0529 44.233 37.5715 42.9657 37.5703H30.2362C27.5998 37.5703 25.4629 39.6133 25.4629 42.1326C25.4623 42.7312 25.5852 43.324 25.8248 43.8772C26.0643 44.4304 26.4157 44.9332 26.859 45.3568C27.3022 45.7805 27.8286 46.1167 28.408 46.3463C28.9875 46.5759 29.6087 46.6944 30.2362 46.695" fill="#FF7029"/>
<path d="M2.40848e-06 42.1326C-0.000627577 42.7312 0.122337 43.324 0.361876 43.8772C0.601415 44.4304 0.952836 44.9332 1.39608 45.3568C1.83932 45.7805 2.36569 46.1167 2.94515 46.3463C3.52462 46.5759 4.14581 46.6944 4.77328 46.695C6.04058 46.6938 7.25547 46.2124 8.15076 45.3569C9.04605 44.5013 9.54841 43.3415 9.54735 42.1326V37.5703H4.77328C2.13691 37.5703 2.40848e-06 39.6133 2.40848e-06 42.1326ZM12.7295 42.1326V54.2989C12.7295 56.819 14.8664 58.862 17.5028 58.862C18.7701 58.8608 19.985 58.3794 20.8803 57.5238C21.7756 56.6683 22.278 55.5085 22.2769 54.2996V42.1326C22.2775 41.534 22.1545 40.9412 21.9149 40.3879C21.6754 39.8347 21.3239 39.3319 20.8805 38.9082C20.4372 38.4846 19.9107 38.1483 19.3312 37.9188C18.7516 37.6892 18.1304 37.5708 17.5028 37.5703C14.8664 37.5703 12.7295 39.6133 12.7295 42.1326Z" fill="#FF7029"/>
</g>
<defs>
<clipPath id="clip0_0_5167">
<rect width="192.916" height="73" fill="white"/>
</clipPath>
</defs>
</svg>
